<?xml version="1.0" encoding="UTF-8" standalone="no"?>
<!-- Created with Inkscape (http://www.inkscape.org/) -->

<svg
   xmlns:dc="http://purl.org/dc/elements/1.1/"
   xmlns:cc="http://creativecommons.org/ns#"
   xmlns:rdf="http://www.w3.org/1999/02/22-rdf-syntax-ns#"
   xmlns:svg="http://www.w3.org/2000/svg"
   xmlns="http://www.w3.org/2000/svg"
   xmlns:sodipodi="http://sodipodi.sourceforge.net/DTD/sodipodi-0.dtd"
   xmlns:inkscape="http://www.inkscape.org/namespaces/inkscape"
   width="503.9884"
   height="130.35147"
   id="svg2"
   version="1.1"
   inkscape:version="0.48.5 r10040"
   sodipodi:docname="dhgate.svg">
  <defs
     id="defs4">
    <inkscape:perspective
       sodipodi:type="inkscape:persp3d"
       inkscape:vp_x="0 : 526.18109 : 1"
       inkscape:vp_y="0 : 1000 : 0"
       inkscape:vp_z="744.09448 : 526.18109 : 1"
       inkscape:persp3d-origin="372.04724 : 350.78739 : 1"
       id="perspective3031" />
  </defs>
  <sodipodi:namedview
     id="base"
     pagecolor="#ffffff"
     bordercolor="#666666"
     borderopacity="1.0"
     inkscape:pageopacity="0.0"
     inkscape:pageshadow="2"
     inkscape:zoom="2.3102767"
     inkscape:cx="171.13422"
     inkscape:cy="83.177917"
     inkscape:document-units="px"
     inkscape:current-layer="layer1"
     showgrid="false"
     inkscape:window-width="2498"
     inkscape:window-height="1417"
     inkscape:window-x="-8"
     inkscape:window-y="-8"
     inkscape:window-maximized="1"
     fit-margin-top="1"
     fit-margin-left="1"
     fit-margin-right="1"
     fit-margin-bottom="1" />
  <metadata
     id="metadata7">
    <rdf:RDF>
      <cc:Work
         rdf:about="">
        <dc:format>image/svg+xml</dc:format>
        <dc:type
           rdf:resource="http://purl.org/dc/dcmitype/StillImage" />
        <dc:title />
      </cc:Work>
    </rdf:RDF>
  </metadata>
  <g
     inkscape:label="Layer 1"
     inkscape:groupmode="layer"
     id="layer1"
     transform="translate(-38.693025,-27.688064)">
    <g
       id="g3788">
      <g
         id="g3037">
        <path
           inkscape:connector-curvature="0"
           id="path3023"
           style="font-size:96.883255px;font-style:normal;font-weight:normal;line-height:125%;letter-spacing:0px;word-spacing:0px;fill:#000000;fill-opacity:1;stroke:none;font-family:Times New Roman;-inkscape-font-specification:Times New Roman"
           d="m 379.24215,104.87795 c 1.48225,1e-5 2.72798,0.51249 3.7372,1.53745 1.00918,1.02498 1.51378,2.26282 1.5138,3.71355 -2e-5,1.45072 -0.5125,2.68857 -1.53746,3.71354 -1.02498,1.02497 -2.26283,1.53745 -3.71354,1.53745 -1.45074,0 -2.68858,-0.51248 -3.71354,-1.53745 -1.02498,-1.02497 -1.53746,-2.26282 -1.53746,-3.71354 0,-1.48226 0.51248,-2.72799 1.53746,-3.7372 1.02496,-1.00919 2.2628,-1.51379 3.71354,-1.5138 z" />
        <path
           inkscape:connector-curvature="0"
           id="path3025"
           style="font-size:96.883255px;font-style:normal;font-weight:normal;line-height:125%;letter-spacing:0px;word-spacing:0px;fill:#000000;fill-opacity:1;stroke:none;font-family:Times New Roman;-inkscape-font-specification:Times New Roman"
           d="m 425.18444,97.592782 c -1.16692,5.708298 -3.45339,10.099898 -6.85941,13.174798 -3.40608,3.07491 -7.17481,4.61236 -11.3062,4.61236 -4.91987,0 -9.20896,-2.0657 -12.8673,-6.19712 -3.65836,-4.13141 -5.48754,-9.713541 -5.48753,-16.746422 -10e-6,-6.812075 2.02628,-12.346904 6.07885,-16.604503 4.05256,-4.257523 8.91722,-6.386303 14.59399,-6.386348 4.25754,4.5e-5 7.7582,1.12751 10.50199,3.382399 2.74373,2.254972 4.11561,4.59663 4.11565,7.024982 -4e-5,1.198459 -0.38637,2.168237 -1.159,2.909336 -0.77271,0.741163 -1.85287,1.111728 -3.24048,1.111698 -1.86075,3e-5 -3.26417,-0.599182 -4.21026,-1.797639 -0.53617,-0.662255 -0.89097,-1.923754 -1.06439,-3.784502 -0.17349,-1.860676 -0.81212,-3.279863 -1.91591,-4.257565 -1.10384,-0.946084 -2.6334,-1.419147 -4.58871,-1.419188 -3.15377,4.1e-5 -5.69254,1.166928 -7.61631,3.500664 -2.55455,3.090712 -3.83182,7.174817 -3.83181,12.252326 -10e-6,5.172174 1.26938,9.737225 3.80816,13.695162 2.53875,3.95797 5.96845,5.93695 10.28911,5.93694 3.09065,1e-5 5.86595,-1.0565 8.32591,-3.16952 1.73453,-1.45071 3.42178,-4.08409 5.06177,-7.900146 z" />
        <path
           inkscape:connector-curvature="0"
           id="path3027"
           style="font-size:96.883255px;font-style:normal;font-weight:normal;line-height:125%;letter-spacing:0px;word-spacing:0px;fill:#000000;fill-opacity:1;stroke:none;font-family:Times New Roman;-inkscape-font-specification:Times New Roman"
           d="m 446.52747,69.445547 c 6.55977,4.5e-5 11.82653,2.491506 15.8003,7.474392 3.37447,4.257598 5.06172,9.145908 5.06177,14.664946 -5e-5,3.879133 -0.9304,7.80555 -2.79107,11.779265 -1.86076,3.97373 -4.42318,6.96979 -7.68727,8.98819 -3.26417,2.0184 -6.89886,3.0276 -10.9041,3.0276 -6.52828,0 -11.7162,-2.60184 -15.56376,-7.80553 -3.24837,-4.38371 -4.87255,-9.303555 -4.87255,-14.759562 0,-3.973702 0.98554,-7.923772 2.95664,-11.850222 1.97109,-3.926384 4.56505,-6.827833 7.78188,-8.704355 3.21681,-1.876439 6.62286,-2.814679 10.21816,-2.814724 z m -1.46649,3.074908 c -1.67151,4.2e-5 -3.35089,0.496757 -5.03812,1.490148 -1.68728,0.993471 -3.05127,2.735917 -4.092,5.227344 -1.04075,2.491496 -1.56112,5.692551 -1.5611,9.603174 -2e-5,6.307522 1.2536,11.747739 3.76085,16.320669 2.50721,4.57294 5.81076,6.85941 9.91066,6.85941 3.05911,0 5.58211,-1.2615 7.569,-3.78451 1.98683,-2.52299 2.98026,-6.85939 2.9803,-13.009222 -4e-5,-7.695128 -1.65575,-13.750325 -4.96716,-18.16561 -2.23919,-3.027562 -5.09333,-4.541361 -8.56243,-4.541403 z" />
        <path
           inkscape:connector-curvature="0"
           id="path3029"
           style="font-size:96.883255px;font-style:normal;font-weight:normal;line-height:125%;letter-spacing:0px;word-spacing:0px;fill:#000000;fill-opacity:1;stroke:none;font-family:Times New Roman;-inkscape-font-specification:Times New Roman"
           d="m 482.64319,78.670271 c 3.15374,-3.153713 5.01445,-4.967118 5.58214,-5.440221 1.41917,-1.198384 2.94874,-2.12874 4.58871,-2.791071 1.63993,-0.662243 3.26411,-0.993387 4.87255,-0.993432 2.71219,4.5e-5 5.04597,0.788482 7.00133,2.365314 1.95528,1.576917 3.26409,3.863385 3.92642,6.85941 3.24832,-3.784463 5.99208,-6.26804 8.23129,-7.450738 2.23911,-1.182613 4.54135,-1.773941 6.90672,-1.773986 2.30218,4.5e-5 4.34423,0.591373 6.12616,1.773986 1.7818,1.182698 3.19311,3.114369 4.23391,5.795019 0.69376,1.829211 1.04067,4.699122 1.04074,8.609742 l 0,18.638676 c -7e-5,2.71223 0.20492,4.57294 0.61498,5.58214 0.31531,0.69383 0.89875,1.28515 1.75033,1.77398 0.85144,0.48884 2.23909,0.73325 4.16296,0.73325 l 0,1.70303 -21.38244,0 0,-1.70303 0.89882,0 c 1.86066,0 3.31138,-0.36268 4.35218,-1.08804 0.7253,-0.5046 1.24567,-1.30881 1.5611,-2.41262 0.12609,-0.53614 0.18917,-2.0657 0.18923,-4.58871 l 0,-18.638676 c -6e-5,-3.53217 -0.42582,-6.023631 -1.27727,-7.474392 -1.23002,-2.018363 -3.20112,-3.027562 -5.91329,-3.027601 -1.67154,3.9e-5 -3.35091,0.41791 -5.03811,1.253616 -1.68731,0.835781 -3.72936,2.389002 -6.12617,4.659668 l -0.0946,0.520369 0.0946,2.03417 0,20.672846 c -4e-5,2.96453 0.16553,4.80947 0.49672,5.53483 0.3311,0.72537 0.95396,1.33247 1.8686,1.82129 0.91454,0.48884 2.47564,0.73325 4.68332,0.73325 l 0,1.70303 -21.90281,0 0,-1.70303 c 2.39682,0 4.04466,-0.28383 4.94351,-0.85151 0.89878,-0.56767 1.52165,-1.41919 1.8686,-2.55454 0.15765,-0.53613 0.23649,-2.09724 0.23653,-4.68332 l 0,-18.638676 c -4e-5,-3.53217 -0.52041,-6.070938 -1.56111,-7.61631 -1.38768,-2.018364 -3.32724,-3.027563 -5.81867,-3.027602 -1.70305,3.9e-5 -3.39031,0.457332 -5.06177,1.371882 -2.61764,1.387687 -4.63604,2.948793 -6.05521,4.683321 l 0,23.227385 c -1e-5,2.83838 0.1971,4.68332 0.59133,5.53483 0.3942,0.85152 0.97765,1.49015 1.75033,1.91591 0.77265,0.42575 2.34164,0.63863 4.70698,0.63863 l 0,1.70303 -21.42975,0 0,-1.70303 c 1.98686,0 3.37451,-0.21288 4.16296,-0.63863 0.78843,-0.42576 1.38764,-1.10381 1.79764,-2.03417 0.40997,-0.93036 0.61497,-2.73588 0.61498,-5.41657 l 0,-16.5572 c -1e-5,-4.762134 -0.14193,-7.837039 -0.42576,-9.224724 -0.22077,-1.040701 -0.56768,-1.758179 -1.04074,-2.152435 -0.47307,-0.394181 -1.11959,-0.59129 -1.93956,-0.591329 -0.88305,3.9e-5 -1.93956,0.23657 -3.16952,0.709594 l -0.70959,-1.703026 13.05653,-5.298303 2.03417,0 z" />
      </g>
      <g
         id="g3782">
        <g
           transform="scale(0.91048805,1.0983121)"
           style="font-size:114.30526733px;font-style:normal;font-weight:normal;line-height:125%;letter-spacing:0px;word-spacing:0px;fill:#6d6e71;fill-opacity:1;stroke:none;font-family:Sans"
           id="text2996">
          <path
             d="m 43.595328,26.120145 37.562229,0 c 7.404486,8.1e-5 13.385786,1.004717 17.943917,3.013908 4.558006,2.009349 8.325386,4.893024 11.302156,8.651033 2.97662,3.75815 5.13473,8.130173 6.47432,13.116083 1.33943,4.986024 2.00919,10.269661 2.00927,15.850926 -8e-5,8.744088 -0.99541,15.525375 -2.986,20.343882 -1.99074,4.818549 -4.75349,8.855693 -8.28825,12.111447 -3.5349,3.255766 -7.33018,5.423176 -11.385871,6.502226 -5.544159,1.48835 -10.567335,2.23253 -15.069542,2.23253 l -37.562229,0 z M 68.87867,44.6501 l 0,44.706308 6.195257,0 c 5.283596,1.9e-5 9.041676,-0.586018 11.27425,-1.758113 2.232471,-1.172054 3.98128,-3.218533 5.246433,-6.139443 1.265039,-2.920857 1.897587,-7.655665 1.897646,-14.204439 -5.9e-5,-8.669588 -1.41399,-14.604377 -4.241797,-17.804385 -2.827916,-3.19989 -7.516214,-4.799865 -14.064906,-4.799928 z"
             style="font-variant:normal;font-weight:900;font-stretch:normal;text-align:start;line-height:125%;writing-mode:lr-tb;text-anchor:start;fill:#6d6e71;fill-opacity:1;font-family:Arial Black;-inkscape-font-specification:'Arial Black, Heavy'"
             id="path3017"
             inkscape:connector-curvature="0" />
        </g>
        <g
           transform="matrix(0.92185474,0,0,1.0847696,0,-20)"
           style="font-size:115.73227692px;font-style:normal;font-weight:normal;line-height:125%;letter-spacing:0px;word-spacing:0px;fill:#6d6e71;fill-opacity:1;stroke:none;font-family:Sans"
           id="text3012">
          <path
             d="m 115.46753,44.883323 25.59899,0 0,28.989579 27.9724,0 0,-28.989579 25.712,0 0,82.843517 -25.712,0 0,-33.510374 -27.9724,0 0,33.510374 -25.59899,0 z"
             style="font-variant:normal;font-weight:900;font-stretch:normal;text-align:start;line-height:125%;writing-mode:lr-tb;text-anchor:start;fill:#6d6e71;fill-opacity:1;font-family:Arial Black;-inkscape-font-specification:'Arial Black, Heavy'"
             id="path3020"
             inkscape:connector-curvature="0" />
        </g>
      </g>
      <g
         id="g3776">
        <text
           xml:space="preserve"
           style="font-size:103.92824554px;font-style:normal;font-weight:normal;line-height:125%;letter-spacing:0px;word-spacing:0px;fill:#ffcc00;fill-opacity:1;stroke:none;font-family:Sans"
           x="252.73721"
           y="115.48053"
           id="text3004"
           sodipodi:linespacing="125%"><tspan
             sodipodi:role="line"
             id="tspan3006"
             x="252.73721"
             y="115.48053"
             style="fill:#ffcc00;fill-opacity:1;font-family:Times New Roman;-inkscape-font-specification:Times New Roman">ate</tspan></text>
        <g
           style="font-size:187.13679504px;font-style:normal;font-weight:normal;line-height:125%;letter-spacing:0px;word-spacing:0px;fill:#000000;fill-opacity:0.29100527;stroke:#ff0000;stroke-width:0.2;stroke-miterlimit:4;font-family:Sans"
           id="text3000">
          <path
             d="M 206.06343,84.94044 C 193.87736,78.66558 187.06902,72.051 187.57264,56.31729 c 0.50362,-15.73372 16.10271,-26.636445 31.34018,-26.815914 7.98006,8.6e-5 14.01394,3.081086 19.86203,6.979685 5.82511,-4.191333 10.77005,-6.873785 17.47534,-6.915699 7.2908,0 11.84019,4.124822 11.84019,8.654292 0,2.785936 -1.08035,5.823186 -4.22843,5.823186 -6.2448,0 -6.53472,-8.275651 -12.78224,-8.909599 -4.1058,-0.136092 -8.03634,1.339929 -10.23858,3.80484 0.96354,1.142009 8.64649,6.606749 8.64649,21.699659 0,15.09291 -13.92005,26.77037 -30.22023,26.94323 -10.61953,7e-5 -24.45526,3.01237 -24.45512,8.72053 0.12814,2.96363 1.52263,6.94795 13.87854,7.03072 18.30444,0.58426 51.35972,-4.34439 52.15017,24.95541 0,16.37407 -10.17901,29.2384 -44.44665,28.73778 -28.4552,0 -35.75828,-13.02897 -35.75828,-24.37147 0,-12.9577 12.29586,-16.94847 16.7953,-15.86422 -4.01537,-2.73845 -10.96239,-6.90989 -10.96239,-15.66295 0,-8.19386 6.84241,-13.75767 19.59447,-16.18633 z M 218.99405,32.127034 C 208.64046,32.020721 201.66188,44.30297 201.7116,58.83525 c 0.65169,12.58686 3.06997,25.55821 16.89193,25.7772 14.00174,-0.56735 16.39775,-14.88215 16.40228,-25.21105 0.0655,-16.10647 -5.65817,-27.168052 -16.01176,-27.274366 z m -16.31624,86.203346 c 1.5126,1.70059 3.73395,4.69115 3.25992,10.94057 -2.82937,-5.82161 -9.3846,-7.20668 -12.76533,-5.49848 -3.08132,1.79708 -6.97727,3.89407 -6.97727,11.22881 0,8.68666 8.44609,19.37632 30.75041,19.37632 18.27404,0 32.35903,-8.87888 32.07276,-21.64309 0,-11.60558 -10.0598,-14.06299 -25.83879,-14.43702 -13.41194,0.22334 -16.88458,0.33243 -20.5017,0.0329 z"
             style="fill:#ffcc00;fill-opacity:1;stroke:none;font-family:Times New Roman;-inkscape-font-specification:Times New Roman"
             id="path3006"
             inkscape:connector-curvature="0"
             sodipodi:nodetypes="czccccccczccccccccczccczcccccccc" />
        </g>
      </g>
    </g>
  </g>
</svg>
