<?xml version="1.0" encoding="utf-8"?>
<!-- Generator: Adobe Illustrator 23.0.1, SVG Export Plug-In . SVG Version: 6.00 Build 0)  -->
<svg version="1.1" id="Layer_1" xmlns="http://www.w3.org/2000/svg" xmlns:xlink="http://www.w3.org/1999/xlink" x="0px" y="0px"
	 viewBox="0 0 149.33 149.34" style="enable-background:new 0 0 149.33 149.34;" xml:space="preserve">
<style type="text/css">
	.st0{clip-path:url(#SVGID_2_);fill-rule:evenodd;clip-rule:evenodd;fill:#FFFFFF;}
	.st1{fill-rule:evenodd;clip-rule:evenodd;fill:none;}
	.st2{clip-path:url(#SVGID_4_);}
	.st3{clip-path:url(#SVGID_6_);fill:#B09E80;}
	.st4{clip-path:url(#SVGID_8_);fill:#B09E80;}
	.st5{clip-path:url(#SVGID_10_);fill:#B09E80;}
	.st6{clip-path:url(#SVGID_12_);fill:#B09E80;}
	.st7{clip-path:url(#SVGID_14_);fill:#B09E80;}
	.st8{clip-path:url(#SVGID_16_);}
	.st9{fill:#192538;}
	.st10{clip-path:url(#SVGID_18_);}
</style>
<g>
	<g>
		<defs>
			<rect id="SVGID_1_" x="-375.51" y="-105.47" width="945" height="540"/>
		</defs>
		<clipPath id="SVGID_2_">
			<use xlink:href="#SVGID_1_"  style="overflow:visible;"/>
		</clipPath>
		<rect x="-375.51" y="-105.47" class="st0" width="945" height="540"/>
	</g>
</g>
<rect x="-8.08" y="-3.93" class="st1" width="165.48" height="157.2"/>
<g>
	<g>
		<defs>
			<rect id="SVGID_3_" x="15.44" y="-9.69" width="118.44" height="118.56"/>
		</defs>
		<clipPath id="SVGID_4_">
			<use xlink:href="#SVGID_3_"  style="overflow:visible;"/>
		</clipPath>
		<g class="st2">
			<g>
				<defs>
					<rect id="SVGID_5_" x="15.44" y="-9.69" width="118.44" height="118.56"/>
				</defs>
				<clipPath id="SVGID_6_">
					<use xlink:href="#SVGID_5_"  style="overflow:visible;"/>
				</clipPath>
				<polygon class="st3" points="79.7,11.31 74.83,3.99 69.95,11.31 74.83,18.63 				"/>
			</g>
			<g>
				<defs>
					<rect id="SVGID_7_" x="15.44" y="-9.69" width="118.44" height="118.56"/>
				</defs>
				<clipPath id="SVGID_8_">
					<use xlink:href="#SVGID_7_"  style="overflow:visible;"/>
				</clipPath>
				<polygon class="st4" points="74.83,22.3 57.52,51.34 37.03,41.82 44.35,73.56 44.35,80.88 105.31,80.88 105.31,73.56 
					112.62,41.82 92.14,51.34 				"/>
			</g>
			<g>
				<defs>
					<rect id="SVGID_9_" x="15.44" y="-9.69" width="118.44" height="118.56"/>
				</defs>
				<clipPath id="SVGID_10_">
					<use xlink:href="#SVGID_9_"  style="overflow:visible;"/>
				</clipPath>
				<rect x="44.35" y="85.76" class="st5" width="60.96" height="9.76"/>
			</g>
			<g>
				<defs>
					<rect id="SVGID_11_" x="15.44" y="-9.69" width="118.44" height="118.56"/>
				</defs>
				<clipPath id="SVGID_12_">
					<use xlink:href="#SVGID_11_"  style="overflow:visible;"/>
				</clipPath>
				<polygon class="st6" points="23.99,28.76 25.7,37.31 34.23,39.02 32.52,30.47 				"/>
			</g>
			<g>
				<defs>
					<rect id="SVGID_13_" x="15.44" y="-9.69" width="118.44" height="118.56"/>
				</defs>
				<clipPath id="SVGID_14_">
					<use xlink:href="#SVGID_13_"  style="overflow:visible;"/>
				</clipPath>
				<polygon class="st7" points="117.13,30.47 115.43,39.02 123.96,37.31 125.67,28.76 				"/>
			</g>
		</g>
	</g>
</g>
<g>
	<g>
		<defs>
			<rect id="SVGID_15_" x="-397.84" y="-144.69" width="945" height="540"/>
		</defs>
		<clipPath id="SVGID_16_">
			<use xlink:href="#SVGID_15_"  style="overflow:visible;"/>
		</clipPath>
		<g class="st8">
			<path class="st9" d="M65.65,102.12v0.4c-0.97,0.06-1.82,0.18-2.57,0.35s-1.49,0.6-2.24,1.29c-0.55,0.52-0.92,0.86-1.11,1.03
				s-0.41,0.37-0.64,0.59L47.32,117.4l14.06,15.89c1.09,1.22,2.03,1.98,2.8,2.3c0.77,0.31,1.76,0.54,2.96,0.68v0.38H59.7
				l-15.45-17.46v13.29c0,2.45,1.23,3.72,3.7,3.8v0.38H37.01v-0.38c0.69-0.03,1.3-0.16,1.83-0.39s0.97-0.62,1.32-1.17
				s0.53-1.3,0.53-2.24v-26.2c0-1.45-0.36-2.43-1.09-2.94s-1.59-0.78-2.59-0.81v-0.4h10.95v0.4c-2.47,0.08-3.7,1.33-3.7,3.75v12.75
				l13.24-13.24c0,0.03,0.03-0.02,0.09-0.14c0.73-0.67,1.1-1.25,1.1-1.73c0-0.55-0.21-0.89-0.64-1.03s-1.07-0.26-1.93-0.35v-0.4
				h9.53V102.12z"/>
		</g>
	</g>
</g>
<g>
	<g>
		<defs>
			<rect id="SVGID_17_" x="-397.84" y="-144.69" width="945" height="540"/>
		</defs>
		<clipPath id="SVGID_18_">
			<use xlink:href="#SVGID_17_"  style="overflow:visible;"/>
		</clipPath>
		<g class="st10">
			<path class="st9" d="M69.24,136.27h0.47c0.84,0,1.59-0.33,2.24-1s0.97-1.6,0.97-2.8v-26.06c0-1.44-0.36-2.44-1.09-3
				s-1.59-0.86-2.59-0.89v-0.4h11.04v0.4c-0.97,0.03-1.83,0.32-2.58,0.87s-1.13,1.55-1.13,3.02v25.2c0,1.5,0.38,2.54,1.13,3.12
				s1.98,0.87,3.68,0.87h2.98c1.3,0,2.33-0.16,3.11-0.47s1.39-0.79,1.84-1.43s0.91-1.55,1.38-2.72h0.4l-1.31,5.67H69.24V136.27z"/>
			<path class="st9" d="M110.93,108.75h-0.38c-0.22-1.67-0.95-3.14-2.19-4.39s-2.88-1.89-4.91-1.89c-1.33,0-2.51,0.31-3.54,0.94
				s-1.83,1.48-2.39,2.55s-0.84,2.31-0.84,3.7c0,1.08,0.17,2.04,0.5,2.87s0.83,1.57,1.49,2.21s1.43,1.24,2.32,1.79
				s2.09,1.25,3.61,2.1c2.53,1.39,4.5,2.78,5.91,4.16s2.11,3.28,2.11,5.68c0,1.47-0.38,2.89-1.14,4.25s-1.9,2.49-3.43,3.36
				s-3.43,1.31-5.7,1.31c-1.42,0-2.68-0.15-3.77-0.46s-2.2-0.73-3.33-1.28c-0.47-0.16-0.79-0.23-0.96-0.23
				c-0.33,0-0.54,0.12-0.64,0.35s-0.24,0.74-0.41,1.52h-0.4v-8.65h0.4c0.56,2.53,1.66,4.45,3.28,5.74s3.6,1.95,5.93,1.95
				c1.75,0,3.15-0.33,4.21-0.98s1.79-1.45,2.19-2.39s0.61-1.88,0.61-2.81c0-1.94-0.59-3.52-1.77-4.75s-2.97-2.48-5.38-3.76
				c-1.66-0.91-2.88-1.61-3.68-2.11s-1.61-1.15-2.43-1.95s-1.47-1.74-1.96-2.82s-0.73-2.33-0.73-3.74c0-1.63,0.43-3.18,1.29-4.66
				s2.08-2.68,3.66-3.57s3.37-1.35,5.37-1.35c1.52,0,3.07,0.26,4.66,0.77c0.25,0.13,0.59,0.19,1.01,0.19c0.52,0,0.87-0.35,1.05-1.05
				h0.38C110.93,101.35,110.93,108.75,110.93,108.75z"/>
		</g>
	</g>
</g>
</svg>
