<?xml version="1.0" encoding="utf-8"?>
<!-- Generator: Adobe Illustrator 23.0.1, SVG Export Plug-In . SVG Version: 6.00 Build 0)  -->
<svg version="1.1" id="Layer_1" xmlns="http://www.w3.org/2000/svg" xmlns:xlink="http://www.w3.org/1999/xlink" x="0px" y="0px"
	 viewBox="0 0 440.98 86" style="enable-background:new 0 0 440.98 86;" xml:space="preserve">
<style type="text/css">
	.st0{clip-path:url(#SVGID_4_);}
	.st1{fill:#192538;}
	.st2{clip-path:url(#SVGID_6_);}
	.st3{clip-path:url(#SVGID_8_);}
	.st4{clip-path:url(#SVGID_10_);}
	.st5{clip-path:url(#SVGID_12_);}
	.st6{clip-path:url(#SVGID_14_);}
	.st7{clip-path:url(#SVGID_16_);}
	.st8{clip-path:url(#SVGID_18_);fill:#B09E80;}
	.st9{fill:none;stroke:#B09E80;stroke-width:2;stroke-miterlimit:10;}
</style>
<g>
	<defs>
		<rect id="SVGID_1_" x="-252.06" y="-196.44" width="945" height="540"/>
	</defs>
	<clipPath id="SVGID_2_">
		<use xlink:href="#SVGID_1_"  style="overflow:visible;"/>
	</clipPath>
</g>
<g>
	<defs>
		<rect id="SVGID_3_" x="-252.06" y="-196.44" width="945" height="540"/>
	</defs>
	<clipPath id="SVGID_4_">
		<use xlink:href="#SVGID_3_"  style="overflow:visible;"/>
	</clipPath>
	<g class="st0">
		<path class="st1" d="M29.59,50.09v0.39c-0.95,0.06-1.79,0.18-2.52,0.34c-0.73,0.17-1.46,0.59-2.19,1.26
			c-0.54,0.5-0.9,0.84-1.09,1.01c-0.19,0.17-0.4,0.36-0.63,0.57L11.63,65.07l13.78,15.57c1.07,1.19,1.99,1.94,2.75,2.25
			c0.76,0.31,1.73,0.53,2.91,0.67v0.37h-7.3L8.62,66.81v13.02c0,2.4,1.21,3.64,3.63,3.72v0.37H1.52v-0.37
			c0.67-0.03,1.27-0.16,1.79-0.38c0.52-0.22,0.95-0.61,1.3-1.15c0.34-0.54,0.52-1.28,0.52-2.19V54.16c0-1.42-0.36-2.38-1.07-2.88
			c-0.71-0.5-1.56-0.76-2.54-0.79v-0.39h10.73v0.39c-2.42,0.08-3.63,1.3-3.63,3.67v12.5L21.6,53.68c0,0.03,0.03-0.02,0.09-0.14
			c0.72-0.66,1.08-1.22,1.08-1.7c0-0.54-0.21-0.87-0.63-1.01c-0.42-0.14-1.05-0.25-1.9-0.34v-0.39H29.59z"/>
	</g>
</g>
<g>
	<defs>
		<rect id="SVGID_5_" x="-252.06" y="-196.44" width="945" height="540"/>
	</defs>
	<clipPath id="SVGID_6_">
		<use xlink:href="#SVGID_5_"  style="overflow:visible;"/>
	</clipPath>
	<g class="st2">
		<path class="st1" d="M41.24,56.91v0.31c-0.81,0-1.49,0.23-2.05,0.68c-0.56,0.45-0.84,1.2-0.84,2.26v20.5c0,1.04,0.3,1.79,0.9,2.26
			c0.6,0.47,1.27,0.71,2,0.71v0.29h-8.56v-0.29c0.78,0,1.46-0.23,2.03-0.69c0.57-0.46,0.85-1.22,0.85-2.28v-20.5
			c0-1.12-0.28-1.9-0.85-2.31s-1.24-0.62-2.03-0.62v-0.31H41.24z"/>
		<path class="st1" d="M71.9,56.91v0.31c-0.68,0.09-1.23,0.22-1.62,0.39s-0.71,0.53-0.93,1.05c-0.22,0.52-0.33,1.27-0.33,2.25v23.7
			h-0.18L48.1,61.46v16.62c0,1.38,0.05,2.41,0.17,3.08c0.11,0.67,0.27,1.16,0.48,1.45c0.45,0.64,1.24,0.98,2.37,1.03v0.29h-6.77
			v-0.29c0.76-0.04,1.35-0.2,1.77-0.49s0.72-0.81,0.9-1.58c0.18-0.76,0.27-1.92,0.27-3.46V60.49l-0.9-1.01
			c-0.79-0.9-1.43-1.48-1.91-1.71c-0.48-0.24-1.07-0.42-1.78-0.54v-0.31h5.08L68.2,79.8V62.36c0-1.31-0.05-2.29-0.16-2.93
			s-0.38-1.17-0.83-1.56c-0.45-0.39-1.15-0.6-2.1-0.64v-0.31H71.9z"/>
		<path class="st1" d="M99.14,62.52h-0.29c-0.39-1.76-1.43-3.13-3.12-4.1c-1.69-0.97-3.61-1.46-5.78-1.46
			c-1.13,0-2.33,0.17-3.62,0.52c-1.29,0.35-2.55,0.98-3.77,1.9c-1.22,0.92-2.24,2.25-3.04,3.99c-0.81,1.74-1.21,3.93-1.21,6.57
			c0,4.21,0.98,7.57,2.94,10.09s5.11,3.78,9.45,3.78c1.71,0,2.97-0.12,3.78-0.35c0.81-0.23,1.32-0.55,1.55-0.95s0.34-0.95,0.34-1.63
			v-4.95c0-1.17-0.25-1.95-0.76-2.33s-1.27-0.63-2.28-0.75v-0.31h8.78v0.31c-0.81,0.09-1.43,0.26-1.87,0.52
			c-0.44,0.26-0.73,0.6-0.88,1.02c-0.15,0.42-0.22,0.97-0.22,1.65v7.52c-2.69,0.72-5.47,1.08-8.33,1.08c-1.48,0-2.94-0.12-4.38-0.37
			c-1.44-0.25-2.95-0.79-4.51-1.63c-1.57-0.84-2.95-2.09-4.15-3.74c-1.8-2.48-2.7-5.29-2.7-8.42c0-1.82,0.34-3.59,1.02-5.32
			c0.68-1.72,1.66-3.27,2.93-4.63c1.28-1.36,2.84-2.44,4.69-3.23c1.85-0.79,3.89-1.18,6.14-1.18c0.87,0,1.72,0.06,2.55,0.17
			s2.07,0.35,3.72,0.71c0.65,0.15,1.11,0.22,1.39,0.22c0.6,0,1.04-0.3,1.32-0.9h0.29V62.52z"/>
	</g>
</g>
<g>
	<defs>
		<rect id="SVGID_7_" x="-252.06" y="-196.44" width="945" height="540"/>
	</defs>
	<clipPath id="SVGID_8_">
		<use xlink:href="#SVGID_7_"  style="overflow:visible;"/>
	</clipPath>
	<g class="st3">
		<path class="st1" d="M120.06,83.56h0.46c0.83,0,1.56-0.33,2.19-0.98c0.64-0.65,0.95-1.57,0.95-2.75V54.3
			c0-1.41-0.36-2.39-1.07-2.94s-1.56-0.84-2.54-0.87v-0.39h10.82v0.39c-0.95,0.03-1.79,0.31-2.53,0.85c-0.73,0.54-1.1,1.52-1.1,2.96
			v24.69c0,1.47,0.37,2.49,1.1,3.05c0.74,0.57,1.94,0.85,3.61,0.85h2.92c1.27,0,2.29-0.15,3.04-0.46c0.76-0.31,1.36-0.77,1.8-1.4
			c0.44-0.63,0.9-1.52,1.36-2.66h0.39l-1.29,5.56h-20.12V83.56z"/>
	</g>
</g>
<g>
	<defs>
		<rect id="SVGID_9_" x="-252.06" y="-196.44" width="945" height="540"/>
	</defs>
	<clipPath id="SVGID_10_">
		<use xlink:href="#SVGID_9_"  style="overflow:visible;"/>
	</clipPath>
	<g class="st4">
		<path class="st1" d="M151.79,56.91v0.31c-0.81,0-1.49,0.23-2.05,0.68c-0.56,0.45-0.84,1.2-0.84,2.26v20.5
			c0,1.04,0.3,1.79,0.9,2.26c0.6,0.47,1.27,0.71,2,0.71v0.29h-8.56v-0.29c0.78,0,1.46-0.23,2.03-0.69c0.57-0.46,0.85-1.22,0.85-2.28
			v-20.5c0-1.12-0.28-1.9-0.85-2.31s-1.24-0.62-2.03-0.62v-0.31H151.79z"/>
		<path class="st1" d="M182.45,56.91v0.31c-0.68,0.09-1.23,0.22-1.62,0.39s-0.71,0.53-0.93,1.05c-0.22,0.52-0.33,1.27-0.33,2.25
			v23.7h-0.18l-20.74-23.15v16.62c0,1.38,0.05,2.41,0.17,3.08c0.11,0.67,0.27,1.16,0.48,1.45c0.45,0.64,1.24,0.98,2.37,1.03v0.29
			h-6.77v-0.29c0.76-0.04,1.35-0.2,1.77-0.49s0.72-0.81,0.9-1.58c0.18-0.76,0.27-1.92,0.27-3.46V60.49l-0.9-1.01
			c-0.79-0.9-1.43-1.48-1.91-1.71c-0.48-0.24-1.07-0.42-1.78-0.54v-0.31h5.08l20.43,22.89V62.36c0-1.31-0.05-2.29-0.16-2.93
			s-0.38-1.17-0.83-1.56c-0.45-0.39-1.15-0.6-2.1-0.64v-0.31H182.45z"/>
		<path class="st1" d="M207.28,56.91v0.31c-0.76,0.05-1.43,0.14-2.01,0.27c-0.58,0.13-1.16,0.47-1.75,1.01
			c-0.43,0.4-0.72,0.67-0.87,0.81c-0.15,0.13-0.32,0.29-0.5,0.46l-9.21,9.1l11,12.43c0.86,0.95,1.59,1.55,2.19,1.8
			c0.6,0.24,1.38,0.42,2.32,0.53v0.29h-5.83l-12.09-13.66v10.4c0,1.92,0.97,2.91,2.9,2.97v0.29h-8.56v-0.29
			c0.54-0.02,1.01-0.13,1.43-0.3c0.42-0.18,0.76-0.48,1.04-0.92c0.27-0.43,0.41-1.02,0.41-1.75v-20.5c0-1.14-0.28-1.9-0.85-2.3
			c-0.57-0.4-1.24-0.61-2.03-0.63v-0.31h8.56v0.31c-1.93,0.06-2.9,1.04-2.9,2.93v9.98l10.36-10.36c0,0.02,0.02-0.01,0.07-0.11
			c0.57-0.53,0.86-0.98,0.86-1.36c0-0.43-0.17-0.7-0.5-0.81s-0.84-0.2-1.51-0.27v-0.31H207.28z"/>
	</g>
</g>
<g>
	<defs>
		<rect id="SVGID_11_" x="-252.06" y="-196.44" width="945" height="540"/>
	</defs>
	<clipPath id="SVGID_12_">
		<use xlink:href="#SVGID_11_"  style="overflow:visible;"/>
	</clipPath>
	<g class="st5">
		<path class="st1" d="M243.72,56.59h-0.37c-0.21-1.64-0.93-3.07-2.15-4.31c-1.22-1.23-2.82-1.85-4.81-1.85
			c-1.3,0-2.46,0.31-3.47,0.92c-1.01,0.61-1.79,1.45-2.34,2.5c-0.55,1.06-0.83,2.27-0.83,3.63c0,1.06,0.16,1.99,0.49,2.81
			c0.33,0.82,0.82,1.54,1.46,2.17c0.64,0.63,1.4,1.21,2.27,1.76c0.87,0.54,2.05,1.23,3.54,2.06c2.48,1.36,4.41,2.72,5.79,4.08
			s2.07,3.21,2.07,5.57c0,1.44-0.37,2.83-1.11,4.17c-0.74,1.34-1.86,2.44-3.37,3.3s-3.36,1.29-5.58,1.29c-1.39,0-2.63-0.15-3.7-0.45
			c-1.07-0.3-2.16-0.72-3.26-1.25c-0.46-0.15-0.77-0.23-0.94-0.23c-0.32,0-0.53,0.12-0.63,0.34s-0.23,0.73-0.4,1.49h-0.39v-8.48
			h0.39c0.55,2.48,1.62,4.36,3.21,5.63c1.59,1.27,3.53,1.91,5.81,1.91c1.71,0,3.09-0.32,4.12-0.96c1.03-0.64,1.75-1.42,2.15-2.34
			c0.4-0.92,0.6-1.84,0.6-2.76c0-1.9-0.58-3.45-1.73-4.65c-1.16-1.2-2.91-2.43-5.27-3.69c-1.62-0.89-2.83-1.58-3.61-2.07
			c-0.78-0.49-1.57-1.13-2.38-1.91c-0.8-0.78-1.44-1.7-1.92-2.77c-0.47-1.06-0.71-2.29-0.71-3.66c0-1.59,0.42-3.12,1.26-4.57
			c0.84-1.45,2.04-2.62,3.58-3.5c1.55-0.88,3.3-1.32,5.26-1.32c1.48,0,3.01,0.25,4.57,0.76c0.25,0.12,0.57,0.18,0.99,0.18
			c0.51,0,0.85-0.34,1.03-1.03h0.37V56.59z"/>
	</g>
</g>
<g>
	<defs>
		<rect id="SVGID_13_" x="-252.06" y="-196.44" width="945" height="540"/>
	</defs>
	<clipPath id="SVGID_14_">
		<use xlink:href="#SVGID_13_"  style="overflow:visible;"/>
	</clipPath>
	<g class="st6">
		<path class="st1" d="M271.12,62.17h-0.29c-0.13-1.76-0.65-2.9-1.54-3.42s-1.99-0.78-3.3-0.78h-5.37v22.69
			c0,1.92,0.98,2.91,2.93,2.97v0.29h-8.6v-0.29c0.81-0.02,1.49-0.26,2.04-0.71c0.56-0.45,0.83-1.2,0.83-2.26V57.97h-5.37
			c-1.31,0-2.41,0.26-3.29,0.78s-1.4,1.66-1.55,3.42h-0.29v-6.6h0.29c0.2,0.31,0.37,0.53,0.51,0.68c0.15,0.15,0.34,0.27,0.57,0.38
			s0.5,0.18,0.82,0.22s0.68,0.06,1.11,0.06h17.5c1.16,0,2.07-0.45,2.71-1.34h0.29V62.17z"/>
		<path class="st1" d="M273.41,57.3h-0.37v-0.39h9.35c1.5,0,2.78,0.23,3.82,0.7c1.04,0.46,1.86,1.05,2.44,1.77
			c0.58,0.72,1,1.47,1.25,2.27c0.25,0.79,0.38,1.58,0.38,2.35c0,0.98-0.21,1.92-0.61,2.82c-0.41,0.9-1.04,1.67-1.89,2.32
			c-0.85,0.65-1.91,1.09-3.18,1.32v0.07c1.61,0.78,3.11,2.34,4.47,4.66l2.44,4.13c1.1,1.85,1.98,3.01,2.65,3.5
			c0.67,0.49,1.32,0.76,1.97,0.83v0.29h-4.92c-0.21-0.27-0.4-0.53-0.59-0.78c-0.18-0.25-0.38-0.52-0.59-0.8
			c-0.12-0.18-0.3-0.46-0.54-0.83c-0.24-0.37-0.38-0.58-0.43-0.63l-3.23-5.34c-0.65-1.09-1.31-1.97-1.99-2.65
			c-0.68-0.68-1.31-1.16-1.9-1.46s-1.12-0.48-1.59-0.55s-1.02-0.11-1.66-0.11v9.89c0,1.92,0.98,2.91,2.93,2.97v0.29h-8.6v-0.29
			c0.54-0.02,1.01-0.13,1.43-0.3c0.42-0.18,0.76-0.48,1.04-0.92c0.27-0.43,0.41-1.02,0.41-1.75V60.23c0-1.08-0.26-1.83-0.79-2.27
			C274.61,57.52,274.04,57.3,273.41,57.3z M278.71,70.06h1.54c1.61,0,2.94-0.23,3.97-0.7c1.03-0.46,1.78-1.13,2.25-1.99
			c0.46-0.86,0.7-1.92,0.7-3.16c0-1.04-0.21-2.06-0.62-3.05c-0.42-1-1.12-1.83-2.12-2.51c-1-0.68-2.34-1.02-4.03-1.02
			c-0.68,0-1.25,0.06-1.69,0.17V70.06z"/>
		<path class="st1" d="M310.06,56.58l8.09,23.14c0.43,1.2,0.83,2.07,1.21,2.6c0.38,0.54,0.74,0.88,1.09,1.02
			c0.35,0.14,0.79,0.24,1.33,0.29v0.29h-8.82v-0.29c0.91,0,1.6-0.09,2.09-0.26c0.49-0.17,0.73-0.64,0.73-1.39
			c0-0.42-0.12-0.97-0.35-1.67c-0.05-0.1-0.07-0.17-0.07-0.22l-2.4-7.17h-9.35l-2.15,6.64c-0.29,0.91-0.44,1.63-0.44,2.18
			c0,0.76,0.19,1.26,0.57,1.51c0.38,0.25,0.92,0.38,1.61,0.38v0.29h-6.34v-0.29c0.9-0.09,1.63-0.43,2.17-1.04
			c0.54-0.6,1.02-1.52,1.42-2.76l7.63-23.25H310.06z M303.91,71.95h8.6l-4.4-12.82h-0.07L303.91,71.95z"/>
		<path class="st1" d="M343.75,62.17h-0.29c-0.13-1.76-0.65-2.9-1.54-3.42s-1.99-0.78-3.3-0.78h-5.37v22.69
			c0,1.92,0.98,2.91,2.93,2.97v0.29h-8.6v-0.29c0.81-0.02,1.49-0.26,2.04-0.71c0.56-0.45,0.83-1.2,0.83-2.26V57.97h-5.37
			c-1.31,0-2.41,0.26-3.29,0.78s-1.4,1.66-1.55,3.42h-0.29v-6.6h0.29c0.2,0.31,0.37,0.53,0.51,0.68c0.15,0.15,0.34,0.27,0.57,0.38
			s0.5,0.18,0.82,0.22s0.68,0.06,1.11,0.06h17.5c1.16,0,2.07-0.45,2.71-1.34h0.29V62.17z"/>
		<path class="st1" d="M345.71,57.22v-0.31h16.1v4.25h-0.26c0-2.27-1.52-3.41-4.55-3.41h-5.63v12.27h4.95
			c0.98,0,1.85-0.16,2.62-0.48c0.77-0.32,1.21-1.05,1.32-2.18h0.28v6.13h-0.28c-0.11-0.7-0.32-1.23-0.62-1.6s-0.61-0.62-0.91-0.74
			s-0.57-0.18-0.8-0.18c-0.44-0.07-0.9-0.11-1.38-0.11h-5.19v9.59c0,0.72,0.14,1.34,0.41,1.87c0.27,0.53,0.91,0.79,1.92,0.79h4.02
			c0.97,0,1.76-0.14,2.38-0.42c0.62-0.28,1.12-0.67,1.48-1.17c0.36-0.5,0.66-1.11,0.91-1.82h0.26l-0.94,4.24h-16.1v-0.29h0.37
			c0.57,0,1.14-0.23,1.69-0.7c0.55-0.46,0.83-1.22,0.83-2.27V60.3c0-0.83-0.19-1.55-0.56-2.16s-1.02-0.92-1.95-0.92H345.71z"/>
		<path class="st1" d="M389.6,62.52h-0.29c-0.39-1.76-1.43-3.13-3.12-4.1c-1.69-0.97-3.61-1.46-5.78-1.46
			c-1.13,0-2.33,0.17-3.62,0.52c-1.29,0.35-2.55,0.98-3.77,1.9s-2.24,2.25-3.04,3.99c-0.81,1.74-1.21,3.93-1.21,6.57
			c0,4.21,0.98,7.57,2.94,10.09c1.96,2.52,5.11,3.78,9.46,3.78c1.71,0,2.97-0.12,3.78-0.35c0.81-0.23,1.32-0.55,1.55-0.95
			s0.34-0.95,0.34-1.63v-4.95c0-1.17-0.25-1.95-0.76-2.33c-0.51-0.38-1.27-0.63-2.28-0.75v-0.31h8.79v0.31
			c-0.81,0.09-1.43,0.26-1.87,0.52s-0.73,0.6-0.88,1.02c-0.15,0.42-0.22,0.97-0.22,1.65v7.52c-2.69,0.72-5.46,1.08-8.33,1.08
			c-1.48,0-2.94-0.12-4.38-0.37c-1.44-0.25-2.95-0.79-4.51-1.63c-1.57-0.84-2.95-2.09-4.14-3.74c-1.8-2.48-2.7-5.29-2.7-8.42
			c0-1.82,0.34-3.59,1.02-5.32s1.66-3.27,2.93-4.63c1.28-1.36,2.84-2.44,4.69-3.23c1.85-0.79,3.89-1.18,6.14-1.18
			c0.87,0,1.72,0.06,2.55,0.17s2.07,0.35,3.72,0.71c0.65,0.15,1.11,0.22,1.39,0.22c0.6,0,1.04-0.3,1.32-0.9h0.29V62.52z"/>
		<path class="st1" d="M402.82,56.91v0.31c-0.81,0-1.49,0.23-2.05,0.68c-0.56,0.45-0.84,1.2-0.84,2.26v20.5
			c0,1.04,0.3,1.79,0.9,2.26c0.6,0.47,1.26,0.71,2,0.71v0.29h-8.57v-0.29c0.78,0,1.46-0.23,2.03-0.69c0.57-0.46,0.85-1.22,0.85-2.28
			v-20.5c0-1.12-0.28-1.9-0.85-2.31c-0.57-0.42-1.24-0.62-2.03-0.62v-0.31H402.82z"/>
		<path class="st1" d="M405.52,57.22v-0.31h16.1v4.25h-0.26c0-2.27-1.52-3.41-4.55-3.41h-5.63v12.27h4.95
			c0.98,0,1.85-0.16,2.62-0.48c0.77-0.32,1.21-1.05,1.32-2.18h0.28v6.13h-0.28c-0.11-0.7-0.32-1.23-0.62-1.6s-0.61-0.62-0.91-0.74
			s-0.57-0.18-0.8-0.18c-0.44-0.07-0.9-0.11-1.38-0.11h-5.19v9.59c0,0.72,0.14,1.34,0.41,1.87c0.27,0.53,0.91,0.79,1.92,0.79h4.02
			c0.97,0,1.76-0.14,2.38-0.42c0.62-0.28,1.12-0.67,1.48-1.17c0.36-0.5,0.66-1.11,0.91-1.82h0.26l-0.94,4.24h-16.1v-0.29h0.37
			c0.57,0,1.14-0.23,1.69-0.7c0.55-0.46,0.83-1.22,0.83-2.27V60.3c0-0.83-0.19-1.55-0.56-2.16s-1.02-0.92-1.95-0.92H405.52z"/>
		<path class="st1" d="M438.59,62.1h-0.29c-0.17-1.31-0.74-2.45-1.71-3.44c-0.97-0.98-2.25-1.48-3.84-1.48
			c-1.04,0-1.96,0.24-2.77,0.73c-0.81,0.49-1.43,1.16-1.87,2s-0.66,1.81-0.66,2.9c0,0.84,0.13,1.59,0.39,2.25
			c0.26,0.65,0.65,1.23,1.16,1.73c0.51,0.5,1.12,0.97,1.82,1.4c0.7,0.43,1.64,0.98,2.83,1.64c1.98,1.09,3.52,2.17,4.62,3.26
			c1.1,1.08,1.65,2.56,1.65,4.45c0,1.15-0.3,2.26-0.89,3.33c-0.59,1.07-1.49,1.95-2.69,2.63s-2.68,1.03-4.46,1.03
			c-1.11,0-2.1-0.12-2.95-0.36c-0.86-0.24-1.72-0.57-2.6-1c-0.37-0.12-0.62-0.18-0.75-0.18c-0.26,0-0.42,0.09-0.5,0.28
			c-0.08,0.18-0.19,0.58-0.32,1.19h-0.31v-6.77h0.31c0.44,1.98,1.3,3.48,2.57,4.49s2.82,1.52,4.64,1.52c1.37,0,2.47-0.26,3.29-0.77
			s1.4-1.14,1.71-1.87c0.32-0.73,0.48-1.47,0.48-2.2c0-1.52-0.46-2.75-1.38-3.71s-2.33-1.94-4.21-2.94
			c-1.3-0.71-2.26-1.26-2.88-1.65c-0.62-0.39-1.26-0.9-1.9-1.52s-1.15-1.36-1.53-2.21c-0.38-0.85-0.57-1.82-0.57-2.93
			c0-1.27,0.34-2.49,1.01-3.65c0.67-1.16,1.63-2.09,2.86-2.8c1.24-0.7,2.63-1.05,4.2-1.05c1.19,0,2.4,0.2,3.65,0.61
			c0.2,0.1,0.46,0.15,0.79,0.15c0.4,0,0.68-0.27,0.83-0.83h0.29V62.1z"/>
	</g>
</g>
<g>
	<defs>
		<rect id="SVGID_15_" x="195.18" y="-5.28" width="50.52" height="50.52"/>
	</defs>
	<clipPath id="SVGID_16_">
		<use xlink:href="#SVGID_15_"  style="overflow:visible;"/>
	</clipPath>
	<g class="st7">
		<defs>
			<rect id="SVGID_17_" x="195.18" y="-5.28" width="50.52" height="50.52"/>
		</defs>
		<clipPath id="SVGID_18_">
			<use xlink:href="#SVGID_17_"  style="overflow:visible;"/>
		</clipPath>
		<polygon class="st8" points="222.59,3.66 220.51,0.55 218.43,3.66 220.51,6.79 		"/>
		<polygon class="st8" points="220.51,8.35 213.13,20.72 204.39,16.67 207.51,30.19 207.51,33.31 233.51,33.31 233.51,30.19 
			236.63,16.67 227.89,20.72 		"/>
		<rect x="207.51" y="35.39" class="st8" width="26" height="4.16"/>
		<polygon class="st8" points="198.82,11.1 199.55,14.74 203.19,15.47 202.46,11.83 		"/>
		<polygon class="st8" points="238.55,11.83 237.83,15.47 241.47,14.74 242.2,11.1 		"/>
	</g>
</g>
<line class="st9" x1="0" y1="34.02" x2="195.22" y2="34.02"/>
<line class="st9" x1="245.76" y1="34.02" x2="440.98" y2="34.02"/>
</svg>
