<?xml version="1.0" encoding="utf-8"?>
<!-- Generator: Adobe Illustrator 23.0.1, SVG Export Plug-In . SVG Version: 6.00 Build 0)  -->
<svg version="1.1" id="Layer_1" xmlns="http://www.w3.org/2000/svg" xmlns:xlink="http://www.w3.org/1999/xlink" x="0px" y="0px"
	 viewBox="0 0 441.02 140" style="enable-background:new 0 0 441.02 140;" xml:space="preserve">
<style type="text/css">
	.st0{clip-path:url(#SVGID_2_);}
	.st1{fill:#D0CECE;}
	.st2{clip-path:url(#SVGID_4_);}
	.st3{clip-path:url(#SVGID_6_);}
	.st4{clip-path:url(#SVGID_8_);}
	.st5{clip-path:url(#SVGID_10_);}
	.st6{clip-path:url(#SVGID_12_);}
	.st7{clip-path:url(#SVGID_14_);}
	.st8{clip-path:url(#SVGID_16_);fill:#B09E80;}
	.st9{fill:none;stroke:#B09E80;stroke-width:2;stroke-miterlimit:10;}
	.st10{clip-path:url(#SVGID_18_);}
	.st11{fill:#B09E80;}
	.st12{clip-path:url(#SVGID_20_);}
</style>
<g>
	<defs>
		<rect id="SVGID_1_" x="-252.02" y="-192" width="945" height="540"/>
	</defs>
	<clipPath id="SVGID_2_">
		<use xlink:href="#SVGID_1_"  style="overflow:visible;"/>
	</clipPath>
	<g class="st0">
		<path class="st1" d="M29.63,54.54v0.39c-0.95,0.06-1.79,0.18-2.52,0.34c-0.73,0.17-1.46,0.59-2.19,1.26
			c-0.54,0.5-0.9,0.84-1.09,1.01c-0.19,0.17-0.4,0.36-0.63,0.57L11.67,69.51l13.78,15.57c1.07,1.19,1.99,1.94,2.75,2.25
			c0.76,0.31,1.73,0.53,2.91,0.67v0.37h-7.3L8.66,71.26v13.02c0,2.4,1.21,3.64,3.63,3.72v0.37H1.56V88
			c0.67-0.03,1.27-0.16,1.79-0.38c0.52-0.22,0.95-0.61,1.3-1.15C5,85.93,5.17,85.2,5.17,84.28V58.6c0-1.42-0.36-2.38-1.07-2.88
			c-0.71-0.5-1.56-0.76-2.54-0.79v-0.39h10.73v0.39C9.87,55,8.66,56.23,8.66,58.6v12.5l12.98-12.98c0,0.03,0.03-0.02,0.09-0.14
			c0.72-0.66,1.08-1.22,1.08-1.7c0-0.54-0.21-0.87-0.63-1.01c-0.42-0.14-1.05-0.25-1.9-0.34v-0.39H29.63z"/>
	</g>
</g>
<g>
	<defs>
		<rect id="SVGID_3_" x="-252.02" y="-192" width="945" height="540"/>
	</defs>
	<clipPath id="SVGID_4_">
		<use xlink:href="#SVGID_3_"  style="overflow:visible;"/>
	</clipPath>
	<g class="st2">
		<path class="st1" d="M41.28,61.36v0.31c-0.81,0-1.49,0.23-2.05,0.68c-0.56,0.45-0.84,1.2-0.84,2.26v20.5c0,1.04,0.3,1.79,0.9,2.26
			c0.6,0.47,1.27,0.71,2,0.71v0.29h-8.56v-0.29c0.78,0,1.46-0.23,2.03-0.69c0.57-0.46,0.85-1.22,0.85-2.28V64.6
			c0-1.12-0.28-1.9-0.85-2.31s-1.24-0.62-2.03-0.62v-0.31H41.28z"/>
		<path class="st1" d="M71.94,61.36v0.31c-0.68,0.09-1.23,0.22-1.62,0.39s-0.71,0.53-0.93,1.05c-0.22,0.52-0.33,1.27-0.33,2.25v23.7
			h-0.18L48.14,65.9v16.62c0,1.38,0.05,2.41,0.17,3.08c0.11,0.67,0.27,1.16,0.48,1.45c0.45,0.64,1.24,0.98,2.37,1.03v0.29h-6.77
			v-0.29c0.76-0.04,1.35-0.2,1.77-0.49s0.72-0.81,0.9-1.58c0.18-0.76,0.27-1.92,0.27-3.46V64.93l-0.9-1.01
			c-0.79-0.9-1.43-1.48-1.91-1.71c-0.48-0.24-1.07-0.42-1.78-0.54v-0.31h5.08l20.43,22.89V66.8c0-1.31-0.05-2.29-0.16-2.93
			s-0.38-1.17-0.83-1.56c-0.45-0.39-1.15-0.6-2.1-0.64v-0.31H71.94z"/>
		<path class="st1" d="M99.18,66.97h-0.29c-0.39-1.76-1.43-3.13-3.12-4.1c-1.69-0.97-3.61-1.46-5.78-1.46
			c-1.13,0-2.33,0.17-3.62,0.52c-1.29,0.35-2.55,0.98-3.77,1.9c-1.22,0.92-2.24,2.25-3.04,3.99c-0.81,1.74-1.21,3.93-1.21,6.57
			c0,4.21,0.98,7.57,2.94,10.09s5.11,3.78,9.45,3.78c1.71,0,2.97-0.12,3.78-0.35c0.81-0.23,1.32-0.55,1.55-0.95s0.34-0.95,0.34-1.63
			v-4.95c0-1.17-0.25-1.95-0.76-2.33s-1.27-0.63-2.28-0.75v-0.31h8.78v0.31c-0.81,0.09-1.43,0.26-1.87,0.52
			c-0.44,0.26-0.73,0.6-0.88,1.02c-0.15,0.42-0.22,0.97-0.22,1.65V88c-2.69,0.72-5.47,1.08-8.33,1.08c-1.48,0-2.94-0.12-4.38-0.37
			c-1.44-0.25-2.95-0.79-4.51-1.63c-1.57-0.84-2.95-2.09-4.15-3.74c-1.8-2.48-2.7-5.29-2.7-8.42c0-1.82,0.34-3.59,1.02-5.32
			c0.68-1.72,1.66-3.27,2.93-4.63c1.28-1.36,2.84-2.44,4.69-3.23c1.85-0.79,3.89-1.18,6.14-1.18c0.87,0,1.72,0.06,2.55,0.17
			s2.07,0.35,3.72,0.71c0.65,0.15,1.11,0.22,1.39,0.22c0.6,0,1.04-0.3,1.32-0.9h0.29V66.97z"/>
	</g>
</g>
<g>
	<defs>
		<rect id="SVGID_5_" x="-252.02" y="-192" width="945" height="540"/>
	</defs>
	<clipPath id="SVGID_6_">
		<use xlink:href="#SVGID_5_"  style="overflow:visible;"/>
	</clipPath>
	<g class="st3">
		<path class="st1" d="M120.1,88h0.46c0.83,0,1.56-0.33,2.19-0.98c0.64-0.65,0.95-1.57,0.95-2.75V58.74c0-1.41-0.36-2.39-1.07-2.94
			s-1.56-0.84-2.54-0.87v-0.39h10.82v0.39c-0.95,0.03-1.79,0.31-2.53,0.85c-0.73,0.54-1.1,1.52-1.1,2.96v24.69
			c0,1.47,0.37,2.49,1.1,3.05c0.74,0.57,1.94,0.85,3.61,0.85h2.92c1.27,0,2.29-0.15,3.04-0.46c0.76-0.31,1.36-0.77,1.8-1.4
			c0.44-0.63,0.9-1.52,1.36-2.66h0.39l-1.29,5.56H120.1V88z"/>
	</g>
</g>
<g>
	<defs>
		<rect id="SVGID_7_" x="-252.02" y="-192" width="945" height="540"/>
	</defs>
	<clipPath id="SVGID_8_">
		<use xlink:href="#SVGID_7_"  style="overflow:visible;"/>
	</clipPath>
	<g class="st4">
		<path class="st1" d="M151.83,61.36v0.31c-0.81,0-1.49,0.23-2.05,0.68c-0.56,0.45-0.84,1.2-0.84,2.26v20.5
			c0,1.04,0.3,1.79,0.9,2.26c0.6,0.47,1.27,0.71,2,0.71v0.29h-8.56v-0.29c0.78,0,1.46-0.23,2.03-0.69c0.57-0.46,0.85-1.22,0.85-2.28
			V64.6c0-1.12-0.28-1.9-0.85-2.31s-1.24-0.62-2.03-0.62v-0.31H151.83z"/>
		<path class="st1" d="M182.49,61.36v0.31c-0.68,0.09-1.23,0.22-1.62,0.39s-0.71,0.53-0.93,1.05c-0.22,0.52-0.33,1.27-0.33,2.25
			v23.7h-0.18L158.69,65.9v16.62c0,1.38,0.05,2.41,0.17,3.08c0.11,0.67,0.27,1.16,0.48,1.45c0.45,0.64,1.24,0.98,2.37,1.03v0.29
			h-6.77v-0.29c0.76-0.04,1.35-0.2,1.77-0.49s0.72-0.81,0.9-1.58c0.18-0.76,0.27-1.92,0.27-3.46V64.93l-0.9-1.01
			c-0.79-0.9-1.43-1.48-1.91-1.71c-0.48-0.24-1.07-0.42-1.78-0.54v-0.31h5.08l20.43,22.89V66.8c0-1.31-0.05-2.29-0.16-2.93
			s-0.38-1.17-0.83-1.56c-0.45-0.39-1.15-0.6-2.1-0.64v-0.31H182.49z"/>
		<path class="st1" d="M207.32,61.36v0.31c-0.76,0.05-1.43,0.14-2.01,0.27c-0.58,0.13-1.16,0.47-1.75,1.01
			c-0.43,0.4-0.72,0.67-0.87,0.81c-0.15,0.13-0.32,0.29-0.5,0.46l-9.21,9.1l11,12.43c0.86,0.95,1.59,1.55,2.19,1.8
			c0.6,0.24,1.38,0.42,2.32,0.53v0.29h-5.83l-12.09-13.66v10.4c0,1.92,0.97,2.91,2.9,2.97v0.29h-8.56v-0.29
			c0.54-0.02,1.01-0.13,1.43-0.3c0.42-0.18,0.76-0.48,1.04-0.92c0.27-0.43,0.41-1.02,0.41-1.75V64.6c0-1.14-0.28-1.9-0.85-2.3
			c-0.57-0.4-1.24-0.61-2.03-0.63v-0.31h8.56v0.31c-1.93,0.06-2.9,1.04-2.9,2.93v9.98l10.36-10.36c0,0.02,0.02-0.01,0.07-0.11
			c0.57-0.53,0.86-0.98,0.86-1.36c0-0.43-0.17-0.7-0.5-0.81s-0.84-0.2-1.51-0.27v-0.31H207.32z"/>
	</g>
</g>
<g>
	<defs>
		<rect id="SVGID_9_" x="-252.02" y="-192" width="945" height="540"/>
	</defs>
	<clipPath id="SVGID_10_">
		<use xlink:href="#SVGID_9_"  style="overflow:visible;"/>
	</clipPath>
	<g class="st5">
		<path class="st1" d="M243.76,61.04h-0.37c-0.21-1.64-0.93-3.07-2.15-4.31c-1.22-1.23-2.82-1.85-4.81-1.85
			c-1.3,0-2.46,0.31-3.47,0.92c-1.01,0.61-1.79,1.45-2.34,2.5c-0.55,1.06-0.83,2.27-0.83,3.63c0,1.06,0.16,1.99,0.49,2.81
			c0.33,0.82,0.82,1.54,1.46,2.17c0.64,0.63,1.4,1.21,2.27,1.76c0.87,0.54,2.05,1.23,3.54,2.06c2.48,1.36,4.41,2.72,5.79,4.08
			s2.07,3.21,2.07,5.57c0,1.44-0.37,2.83-1.11,4.17c-0.74,1.34-1.86,2.44-3.37,3.3s-3.36,1.29-5.58,1.29c-1.39,0-2.63-0.15-3.7-0.45
			c-1.07-0.3-2.16-0.72-3.26-1.25c-0.46-0.15-0.77-0.23-0.94-0.23c-0.32,0-0.53,0.12-0.63,0.34s-0.23,0.73-0.4,1.49h-0.39v-8.48
			h0.39c0.55,2.48,1.62,4.36,3.21,5.63c1.59,1.27,3.53,1.91,5.81,1.91c1.71,0,3.09-0.32,4.12-0.96c1.03-0.64,1.75-1.42,2.15-2.34
			c0.4-0.92,0.6-1.84,0.6-2.76c0-1.9-0.58-3.45-1.73-4.65c-1.16-1.2-2.91-2.43-5.27-3.69c-1.62-0.89-2.83-1.58-3.61-2.07
			c-0.78-0.49-1.57-1.13-2.38-1.91c-0.8-0.78-1.44-1.7-1.92-2.77c-0.47-1.06-0.71-2.29-0.71-3.66c0-1.59,0.42-3.12,1.26-4.57
			c0.84-1.45,2.04-2.62,3.58-3.5c1.55-0.88,3.3-1.32,5.26-1.32c1.48,0,3.01,0.25,4.57,0.76c0.25,0.12,0.57,0.18,0.99,0.18
			c0.51,0,0.85-0.34,1.03-1.03h0.37V61.04z"/>
	</g>
</g>
<g>
	<defs>
		<rect id="SVGID_11_" x="-252.02" y="-192" width="945" height="540"/>
	</defs>
	<clipPath id="SVGID_12_">
		<use xlink:href="#SVGID_11_"  style="overflow:visible;"/>
	</clipPath>
	<g class="st6">
		<path class="st1" d="M271.16,66.62h-0.29c-0.13-1.76-0.65-2.9-1.54-3.42s-1.99-0.78-3.3-0.78h-5.37v22.69
			c0,1.92,0.98,2.91,2.93,2.97v0.29h-8.6v-0.29c0.81-0.02,1.49-0.26,2.04-0.71c0.56-0.45,0.83-1.2,0.83-2.26V62.42h-5.37
			c-1.31,0-2.41,0.26-3.29,0.78s-1.4,1.66-1.55,3.42h-0.29v-6.6h0.29c0.2,0.31,0.37,0.53,0.51,0.68c0.15,0.15,0.34,0.27,0.57,0.38
			s0.5,0.18,0.82,0.22s0.68,0.06,1.11,0.06h17.5c1.16,0,2.07-0.45,2.71-1.34h0.29V66.62z"/>
		<path class="st1" d="M273.45,61.74h-0.37v-0.39h9.35c1.5,0,2.78,0.23,3.82,0.7c1.04,0.46,1.86,1.05,2.44,1.77
			c0.58,0.72,1,1.47,1.25,2.27c0.25,0.79,0.38,1.58,0.38,2.35c0,0.98-0.21,1.92-0.61,2.82c-0.41,0.9-1.04,1.67-1.89,2.32
			c-0.85,0.65-1.91,1.09-3.18,1.32v0.07c1.61,0.78,3.11,2.34,4.47,4.66l2.44,4.13c1.1,1.85,1.98,3.01,2.65,3.5
			c0.67,0.49,1.32,0.76,1.97,0.83v0.29h-4.92c-0.21-0.27-0.4-0.53-0.59-0.78c-0.18-0.25-0.38-0.52-0.59-0.8
			c-0.12-0.18-0.3-0.46-0.54-0.83c-0.24-0.37-0.38-0.58-0.43-0.63l-3.23-5.34c-0.65-1.09-1.31-1.97-1.99-2.65
			c-0.68-0.68-1.31-1.16-1.9-1.46s-1.12-0.48-1.59-0.55s-1.02-0.11-1.66-0.11v9.89c0,1.92,0.98,2.91,2.93,2.97v0.29h-8.6v-0.29
			c0.54-0.02,1.01-0.13,1.43-0.3c0.42-0.18,0.76-0.48,1.04-0.92c0.27-0.43,0.41-1.02,0.41-1.75V64.67c0-1.08-0.26-1.83-0.79-2.27
			C274.65,61.96,274.08,61.74,273.45,61.74z M278.75,74.51h1.54c1.61,0,2.94-0.23,3.97-0.7c1.03-0.46,1.78-1.13,2.25-1.99
			c0.46-0.86,0.7-1.92,0.7-3.16c0-1.04-0.21-2.06-0.62-3.05c-0.42-1-1.12-1.83-2.12-2.51c-1-0.68-2.34-1.02-4.03-1.02
			c-0.68,0-1.25,0.06-1.69,0.17V74.51z"/>
		<path class="st1" d="M310.1,61.03l8.09,23.14c0.43,1.2,0.83,2.07,1.21,2.6c0.38,0.54,0.74,0.88,1.09,1.02
			c0.35,0.14,0.79,0.24,1.33,0.29v0.29h-8.82v-0.29c0.91,0,1.6-0.09,2.09-0.26c0.49-0.17,0.73-0.64,0.73-1.39
			c0-0.42-0.12-0.97-0.35-1.67c-0.05-0.1-0.07-0.17-0.07-0.22l-2.4-7.17h-9.35L301.49,84c-0.29,0.91-0.44,1.63-0.44,2.18
			c0,0.76,0.19,1.26,0.57,1.51c0.38,0.25,0.92,0.38,1.61,0.38v0.29h-6.34v-0.29c0.9-0.09,1.63-0.43,2.17-1.04
			c0.54-0.6,1.02-1.52,1.42-2.76l7.63-23.25H310.1z M303.95,76.39h8.6l-4.4-12.82h-0.07L303.95,76.39z"/>
		<path class="st1" d="M343.79,66.62h-0.29c-0.13-1.76-0.65-2.9-1.54-3.42s-1.99-0.78-3.3-0.78h-5.37v22.69
			c0,1.92,0.98,2.91,2.93,2.97v0.29h-8.6v-0.29c0.81-0.02,1.49-0.26,2.04-0.71c0.56-0.45,0.83-1.2,0.83-2.26V62.42h-5.37
			c-1.31,0-2.41,0.26-3.29,0.78s-1.4,1.66-1.55,3.42h-0.29v-6.6h0.29c0.2,0.31,0.37,0.53,0.51,0.68c0.15,0.15,0.34,0.27,0.57,0.38
			s0.5,0.18,0.82,0.22s0.68,0.06,1.11,0.06h17.5c1.16,0,2.07-0.45,2.71-1.34h0.29V66.62z"/>
		<path class="st1" d="M345.75,61.67v-0.31h16.1v4.25h-0.26c0-2.27-1.52-3.41-4.55-3.41h-5.63v12.27h4.95
			c0.98,0,1.85-0.16,2.62-0.48c0.77-0.32,1.21-1.05,1.32-2.18h0.28v6.13h-0.28c-0.11-0.7-0.32-1.23-0.62-1.6s-0.61-0.62-0.91-0.74
			s-0.57-0.18-0.8-0.18c-0.44-0.07-0.9-0.11-1.38-0.11h-5.19v9.59c0,0.72,0.14,1.34,0.41,1.87c0.27,0.53,0.91,0.79,1.92,0.79h4.02
			c0.97,0,1.76-0.14,2.38-0.42c0.62-0.28,1.12-0.67,1.48-1.17c0.36-0.5,0.66-1.11,0.91-1.82h0.26l-0.94,4.24h-16.1v-0.29h0.37
			c0.57,0,1.14-0.23,1.69-0.7c0.55-0.46,0.83-1.22,0.83-2.27V64.75c0-0.83-0.19-1.55-0.56-2.16s-1.02-0.92-1.95-0.92H345.75z"/>
		<path class="st1" d="M389.64,66.97h-0.29c-0.39-1.76-1.43-3.13-3.12-4.1c-1.69-0.97-3.61-1.46-5.78-1.46
			c-1.13,0-2.33,0.17-3.62,0.52c-1.29,0.35-2.55,0.98-3.77,1.9s-2.24,2.25-3.04,3.99c-0.81,1.74-1.21,3.93-1.21,6.57
			c0,4.21,0.98,7.57,2.94,10.09c1.96,2.52,5.11,3.78,9.46,3.78c1.71,0,2.97-0.12,3.78-0.35c0.81-0.23,1.32-0.55,1.55-0.95
			s0.34-0.95,0.34-1.63v-4.95c0-1.17-0.25-1.95-0.76-2.33c-0.51-0.38-1.27-0.63-2.28-0.75v-0.31h8.79v0.31
			c-0.81,0.09-1.43,0.26-1.87,0.52s-0.73,0.6-0.88,1.02c-0.15,0.42-0.22,0.97-0.22,1.65V88c-2.69,0.72-5.46,1.08-8.33,1.08
			c-1.48,0-2.94-0.12-4.38-0.37c-1.44-0.25-2.95-0.79-4.51-1.63c-1.57-0.84-2.95-2.09-4.14-3.74c-1.8-2.48-2.7-5.29-2.7-8.42
			c0-1.82,0.34-3.59,1.02-5.32s1.66-3.27,2.93-4.63c1.28-1.36,2.84-2.44,4.69-3.23c1.85-0.79,3.89-1.18,6.14-1.18
			c0.87,0,1.72,0.06,2.55,0.17s2.07,0.35,3.72,0.71c0.65,0.15,1.11,0.22,1.39,0.22c0.6,0,1.04-0.3,1.32-0.9h0.29V66.97z"/>
		<path class="st1" d="M402.86,61.36v0.31c-0.81,0-1.49,0.23-2.05,0.68c-0.56,0.45-0.84,1.2-0.84,2.26v20.5
			c0,1.04,0.3,1.79,0.9,2.26c0.6,0.47,1.26,0.71,2,0.71v0.29h-8.57v-0.29c0.78,0,1.46-0.23,2.03-0.69c0.57-0.46,0.85-1.22,0.85-2.28
			V64.6c0-1.12-0.28-1.9-0.85-2.31c-0.57-0.42-1.24-0.62-2.03-0.62v-0.31H402.86z"/>
		<path class="st1" d="M405.56,61.67v-0.31h16.1v4.25h-0.26c0-2.27-1.52-3.41-4.55-3.41h-5.63v12.27h4.95
			c0.98,0,1.85-0.16,2.62-0.48c0.77-0.32,1.21-1.05,1.32-2.18h0.28v6.13h-0.28c-0.11-0.7-0.32-1.23-0.62-1.6s-0.61-0.62-0.91-0.74
			s-0.57-0.18-0.8-0.18c-0.44-0.07-0.9-0.11-1.38-0.11h-5.19v9.59c0,0.72,0.14,1.34,0.41,1.87c0.27,0.53,0.91,0.79,1.92,0.79h4.02
			c0.97,0,1.76-0.14,2.38-0.42c0.62-0.28,1.12-0.67,1.48-1.17c0.36-0.5,0.66-1.11,0.91-1.82h0.26l-0.94,4.24h-16.1v-0.29h0.37
			c0.57,0,1.14-0.23,1.69-0.7c0.55-0.46,0.83-1.22,0.83-2.27V64.75c0-0.83-0.19-1.55-0.56-2.16s-1.02-0.92-1.95-0.92H405.56z"/>
		<path class="st1" d="M438.63,66.55h-0.29c-0.17-1.31-0.74-2.45-1.71-3.44c-0.97-0.98-2.25-1.48-3.84-1.48
			c-1.04,0-1.96,0.24-2.77,0.73c-0.81,0.49-1.43,1.16-1.87,2s-0.66,1.81-0.66,2.9c0,0.84,0.13,1.59,0.39,2.25
			c0.26,0.65,0.65,1.23,1.16,1.73c0.51,0.5,1.12,0.97,1.82,1.4c0.7,0.43,1.64,0.98,2.83,1.64c1.98,1.09,3.52,2.17,4.62,3.26
			c1.1,1.08,1.65,2.56,1.65,4.45c0,1.15-0.3,2.26-0.89,3.33c-0.59,1.07-1.49,1.95-2.69,2.63s-2.68,1.03-4.46,1.03
			c-1.11,0-2.1-0.12-2.95-0.36c-0.86-0.24-1.72-0.57-2.6-1c-0.37-0.12-0.62-0.18-0.75-0.18c-0.26,0-0.42,0.09-0.5,0.28
			c-0.08,0.18-0.19,0.58-0.32,1.19h-0.31v-6.77h0.31c0.44,1.98,1.3,3.48,2.57,4.49s2.82,1.52,4.64,1.52c1.37,0,2.47-0.26,3.29-0.77
			s1.4-1.14,1.71-1.87c0.32-0.73,0.48-1.47,0.48-2.2c0-1.52-0.46-2.75-1.38-3.71s-2.33-1.94-4.21-2.94
			c-1.3-0.71-2.26-1.26-2.88-1.65c-0.62-0.39-1.26-0.9-1.9-1.52s-1.15-1.36-1.53-2.21c-0.38-0.85-0.57-1.82-0.57-2.93
			c0-1.27,0.34-2.49,1.01-3.65c0.67-1.16,1.63-2.09,2.86-2.8c1.24-0.7,2.63-1.05,4.2-1.05c1.19,0,2.4,0.2,3.65,0.61
			c0.2,0.1,0.46,0.15,0.79,0.15c0.4,0,0.68-0.27,0.83-0.83h0.29V66.55z"/>
	</g>
</g>
<g>
	<defs>
		<rect id="SVGID_13_" x="195.22" y="-0.84" width="50.52" height="50.52"/>
	</defs>
	<clipPath id="SVGID_14_">
		<use xlink:href="#SVGID_13_"  style="overflow:visible;"/>
	</clipPath>
	<g class="st7">
		<defs>
			<rect id="SVGID_15_" x="195.22" y="-0.84" width="50.52" height="50.52"/>
		</defs>
		<clipPath id="SVGID_16_">
			<use xlink:href="#SVGID_15_"  style="overflow:visible;"/>
		</clipPath>
		<polygon class="st8" points="222.63,8.11 220.55,4.99 218.47,8.11 220.55,11.23 		"/>
		<polygon class="st8" points="220.55,12.79 213.17,25.17 204.43,21.11 207.55,34.63 207.55,37.75 233.55,37.75 233.55,34.63 
			236.67,21.11 227.93,25.17 		"/>
		<rect x="207.55" y="39.83" class="st8" width="26" height="4.16"/>
		<polygon class="st8" points="198.86,15.55 199.59,19.19 203.23,19.91 202.5,16.27 		"/>
		<polygon class="st8" points="238.59,16.27 237.87,19.91 241.51,19.19 242.24,15.55 		"/>
	</g>
</g>
<line class="st9" x1="0.04" y1="38.46" x2="195.26" y2="38.46"/>
<line class="st9" x1="245.8" y1="38.46" x2="441.02" y2="38.46"/>
<g>
	<defs>
		<rect id="SVGID_17_" x="-252.02" y="-192" width="945" height="540"/>
	</defs>
	<clipPath id="SVGID_18_">
		<use xlink:href="#SVGID_17_"  style="overflow:visible;"/>
	</clipPath>
	<g class="st10">
		<path class="st11" d="M10.72,121.63c0.2-0.02,0.5-0.05,0.91-0.09c2.85-0.28,5-0.51,6.46-0.69c-0.07,0.53-0.13,1.09-0.16,1.67
			c-4.28,0.34-7.33,0.67-9.17,0.99l-0.64-1.78c0.69-0.39,1.28-0.89,1.77-1.5c1.2-1.54,2.57-3.4,4.1-5.58
			c-2.59,0.12-4.43,0.25-5.54,0.39l-0.55-1.71c0.51-0.37,0.97-0.84,1.38-1.44c1.69-2.4,3.53-5.39,5.51-8.96l1.74,0.7
			c-2.2,3.61-4.36,6.85-6.48,9.73c0.22-0.01,0.6-0.03,1.16-0.06c1.78-0.07,3.07-0.14,3.85-0.19c0.97-1.43,1.74-2.58,2.3-3.46
			l1.64,0.83C16.19,114.57,13.43,118.28,10.72,121.63z M8.29,130.53l-0.33-1.74c3.93-0.57,7.43-1.13,10.48-1.66
			c-0.04,0.4-0.06,0.97-0.06,1.72C15.19,129.31,11.83,129.87,8.29,130.53z M20.65,106.66v-1.6h15.1v1.78
			c-1.84,2.26-3.63,4.08-5.38,5.46c3.02,1.64,5.69,3.14,8.01,4.51l-1.03,1.55c-2.63-1.69-5.39-3.38-8.29-5.07
			c-2.59,1.9-5.89,3.62-9.9,5.16c-0.19-0.41-0.51-0.94-0.97-1.61c6.57-2.18,11.77-5.57,15.61-10.18H20.65z M18.48,129.83h9.2v-8.1
			H20.2v-1.61h16.57v1.61h-7.4v8.1h9.07v1.6H18.48V129.83z"/>
		<path class="st11" d="M64.68,105.25h12.42v1.5h-1.96v18.21c0.27-0.05,0.68-0.13,1.24-0.24c0.7-0.13,1.23-0.24,1.6-0.31
			c0,0.38,0,0.67,0,0.89c0.01,0.24,0.02,0.46,0.03,0.67c-0.41,0.06-1,0.16-1.78,0.3c-0.48,0.08-0.84,0.15-1.08,0.19v6.67h-1.63
			v-6.38c-2.34,0.43-5.26,0.99-8.78,1.67l-0.33-1.67c0.77-0.1,1.54-0.22,2.32-0.34v-19.65h-2.05V105.25z M68.36,106.75v5.26h5.16
			v-5.26H68.36z M68.36,113.48v5.26h5.16v-5.26H68.36z M68.36,126.14c0.28-0.05,0.71-0.13,1.28-0.22c1.64-0.28,2.93-0.51,3.88-0.67
			v-5.02h-5.16V126.14z M77.01,117.69h7.4c0.06-0.88,0.09-1.8,0.09-2.78v-3.63h-6.43v-1.53h8.01c1.6-2.45,2.9-4.63,3.91-6.54
			l1.6,0.77c-1.24,2-2.47,3.93-3.69,5.77h5.52v1.53h-7.21v3.55c0,1-0.03,1.96-0.09,2.86h8.35v1.53h-8.2
			c1.26,5.52,4.09,9.56,8.5,12.14c-0.08,0.09-0.2,0.22-0.34,0.39c-0.42,0.44-0.72,0.8-0.91,1.08c-4.44-3.06-7.13-6.96-8.07-11.72
			c-0.79,4.82-3.49,8.8-8.1,11.95c-0.38-0.45-0.79-0.91-1.25-1.38c4.98-3.24,7.7-7.4,8.17-12.47h-7.24V117.69z M79.22,104.13
			l1.41-0.8c0.86,1.15,1.96,2.74,3.3,4.77l-1.53,0.88C81.62,107.66,80.56,106.04,79.22,104.13z"/>
	</g>
</g>
<g>
	<defs>
		<rect id="SVGID_19_" x="-252.02" y="-192" width="945" height="540"/>
	</defs>
	<clipPath id="SVGID_20_">
		<use xlink:href="#SVGID_19_"  style="overflow:visible;"/>
	</clipPath>
	<g class="st12">
		<path class="st11" d="M125.16,123.23l2.63-16.02h-5.19v-1.63h26.78v1.63h-19.81l-0.86,5.26h17.02l-1.19,16.72h6.02v1.6h-29.1v-1.6
			h21.28l0.42-5.96H125.16z M143.83,114.03h-15.38l-1.25,7.6h16.08L143.83,114.03z"/>
		<path class="st11" d="M190.65,130.28c1.95,0.04,4.65,0.07,8.09,0.08c3.64,0,6.55-0.02,8.73-0.05c-0.35,0.82-0.56,1.39-0.61,1.69
			c-8.49-0.01-14.13-0.06-16.93-0.16c-3.36,0.02-5.98-1.28-7.87-3.91c-1.42,1.41-2.71,2.83-3.88,4.27l-1.16-1.36
			c1-1.11,2.41-2.51,4.22-4.22v-10.98h-3.77v-1.61h5.44v12.47C184.76,129.11,187.33,130.37,190.65,130.28z M183.88,110.12
			c-1.09-1.25-2.69-2.94-4.77-5.05l1.28-1c1.74,1.63,3.39,3.26,4.94,4.91L183.88,110.12z M189.46,107.91l1.05-1.1
			c0.16,0.08,0.39,0.21,0.69,0.39c2,1.12,3.53,1.98,4.57,2.6l6.93-3.69h-16.13v-1.44H205v1.77l-7.73,4.25
			c0.04,0.02,0.1,0.06,0.17,0.11c0.32,0.21,0.58,0.36,0.77,0.44h7.01v13.55c0.07,2.25-1.06,3.4-3.4,3.44
			c-0.52,0.02-0.99,0.04-1.39,0.05c-0.19,0.01-0.38,0.02-0.58,0.02c-0.18,0-0.43,0-0.75,0c-0.03-0.56-0.14-1.12-0.31-1.67
			c0.79,0.06,1.65,0.09,2.57,0.09c0.88,0.01,1.47-0.16,1.77-0.52c0.32-0.34,0.48-1,0.47-1.97v-1.25h-6.54v4.8h-1.63v-4.8h-6.54v5.26
			h-1.64v-16.99h8.21c-1-0.56-2.69-1.5-5.07-2.82C189.97,108.19,189.66,108.02,189.46,107.91z M188.88,112.68v3.69h6.54v-3.69
			H188.88z M188.88,117.81v3.71h6.54v-3.71H188.88z M203.59,112.68h-6.54v3.69h6.54V112.68z M197.05,117.81v3.71h6.54v-3.71H197.05z
			"/>
		<path class="st11" d="M247.13,103.36l1.63-0.52c0.53,1.37,0.98,2.62,1.34,3.75h13.47v1.5h-30.02v-1.5h14.67
			C247.84,105.29,247.48,104.21,247.13,103.36z M240.89,109.07l1.41-0.83c1.13,1.42,2.08,2.69,2.85,3.8l-1.5,0.91h7.56
			c1.06-1.47,2.13-3.05,3.21-4.74l1.56,0.8c-0.83,1.24-1.78,2.56-2.85,3.94h7.92v16.11c0.09,2.27-1.06,3.39-3.46,3.36
			c-0.52,0.01-1.05,0.02-1.6,0.03c-0.26,0-0.55,0-0.88,0c-0.27,0-0.7,0-1.28,0c-0.07-0.57-0.2-1.15-0.39-1.74
			c0.81,0.05,1.43,0.08,1.86,0.09c0.48,0.02,1.09,0.03,1.83,0.03c0.86,0.01,1.44-0.14,1.75-0.44c0.33-0.29,0.5-0.82,0.48-1.58
			v-14.38h-21.86v18.68h-1.66v-20.18h7.7C242.95,111.93,242.07,110.63,240.89,109.07z M245.3,115.31l1.25,1.13
			c-2.42,1.86-4.7,3.47-6.85,4.83c-0.21-0.34-0.57-0.77-1.09-1.28C241.26,118.42,243.5,116.87,245.3,115.31z M254.47,128.45h-11.89
			v-8.07h11.89V128.45z M244.17,121.85v5.13h8.68v-5.13H244.17z M250.46,116.47l1.02-1.13c2.08,1.25,4.37,2.73,6.87,4.43l-1.06,1.31
			C255.3,119.6,253.03,118.07,250.46,116.47z"/>
		<path class="st11" d="M319.06,118.46c-5.99-0.65-10.63-1.79-13.94-3.43c-3.41,1.58-8.26,2.89-14.53,3.91
			c-0.19-0.38-0.5-0.9-0.94-1.58c5.64-0.82,10.2-1.93,13.66-3.33c-2.23-1.33-4.32-3.19-6.26-5.57c-1.65,1.72-3.46,3.38-5.44,4.96
			c-0.45-0.53-0.87-0.96-1.25-1.28c3.74-2.7,6.82-5.83,9.23-9.39l1.63,0.67c-0.32,0.47-0.82,1.13-1.5,1.97
			c-0.16,0.2-0.27,0.34-0.34,0.44h16.49v1.71c-2.98,2.88-5.91,5.06-8.78,6.56c3.04,1.36,7.33,2.24,12.89,2.66
			C319.65,117.19,319.35,117.76,319.06,118.46z M292.15,120.9h8.9c0.13-1,0.23-2.1,0.3-3.3h1.72c-0.04,0.93-0.15,2.03-0.31,3.3
			h12.94c-0.07,1.62-0.21,3.58-0.41,5.88c-0.17,2.16-0.65,3.61-1.44,4.36c-0.76,0.8-2.17,1.24-4.24,1.31
			c-1.18,0.04-2.73,0.06-4.65,0.06c-0.03-0.53-0.13-1.15-0.28-1.86c0.82,0.05,2.11,0.09,3.85,0.11c0.4,0.01,0.7,0.02,0.92,0.02
			c1.44,0.03,2.44-0.25,3-0.83c0.59-0.55,0.96-1.61,1.1-3.18c0.13-1.55,0.23-3,0.28-4.35h-11.31c-0.51,5.02-4.25,8.64-11.23,10.86
			c-0.39-0.53-0.79-1.03-1.22-1.5c6.68-2.09,10.25-5.2,10.7-9.36h-8.62V120.9z M313.64,107.36h-15.47c2.19,2.53,4.53,4.48,7.01,5.84
			C307.94,111.89,310.76,109.94,313.64,107.36z"/>
		<path class="st11" d="M352.29,110.96l1.38,1.2c-1.96,2.54-3.92,5.21-5.87,8.01l-1.5-1.2C348.44,116.4,350.44,113.73,352.29,110.96
			z M352.26,109.19c-1.63-1.63-3.23-3.11-4.8-4.46l1.17-1.11c1.51,1.26,3.14,2.69,4.88,4.29L352.26,109.19z M350.43,121.21h21.43
			v11.95h-1.74v-1.77h-17.96v1.83h-1.74V121.21z M352.16,122.81v6.99h17.96v-6.99H352.16z M355.78,112.68
			c-0.55-0.46-1.03-0.82-1.44-1.08c2.26-2.57,3.99-5.51,5.19-8.82l1.72,0.36c-0.34,0.91-0.79,1.92-1.35,3.04h14.74v1.71l-2.75,4.65
			c-0.59-0.23-1.16-0.41-1.69-0.55l2.63-4.25h-7.6c-0.02,0.27-0.06,0.55-0.13,0.83c1.17,4.99,4.83,8.28,10.98,9.87
			c-0.41,0.65-0.73,1.2-0.96,1.66c-5.88-2-9.44-4.98-10.67-8.93c-1.18,4.04-4.77,6.99-10.76,8.87c-0.29-0.57-0.63-1.11-1-1.6
			c6.87-1.71,10.51-5.28,10.9-10.7h-4.49C358,109.67,356.89,111.33,355.78,112.68z"/>
		<path class="st11" d="M407.68,128.8c1.64-1.52,2.92-2.74,3.85-3.64c0.11,0.62,0.28,1.24,0.48,1.86c-1.14,0.96-2.45,2.15-3.94,3.58
			c-0.65,0.64-1.17,1.2-1.56,1.71l-1.34-1.38c0.34-0.47,0.57-0.9,0.67-1.28c0.13-0.39,0.19-0.89,0.19-1.52v-12.81h-3.6v-1.53h5.26
			V128.8z M407.88,109.71c-1.41-1.77-2.84-3.41-4.3-4.91l1.31-1.08c1.72,1.75,3.2,3.33,4.43,4.74L407.88,109.71z M411.43,113.81
			l-1.44-1.03c2.51-3.07,4.57-6.4,6.18-10l1.74,0.58c-0.61,1.22-1.23,2.4-1.86,3.54h15.47c-0.17,8.86-0.36,15.68-0.58,20.46
			c0.04,3.51-1.64,5.24-5.05,5.16c-0.6,0.02-1.24,0.04-1.91,0.05c-0.33,0.01-0.68,0.02-1.05,0.02c-0.32,0-0.76,0-1.31,0
			c-0.09-0.58-0.24-1.2-0.44-1.86c1.41,0.06,2.88,0.09,4.41,0.09c2.47,0.17,3.69-1.01,3.66-3.52c0.25-5.64,0.43-11.92,0.53-18.84
			h-14.67C413.97,110.37,412.74,112.15,411.43,113.81z M413.7,112.84h10.81v14.03H413.7V112.84z M415.34,114.39v4.74h7.52v-4.74
			H415.34z M415.34,125.34h7.52v-4.74h-7.52V125.34z"/>
	</g>
</g>
</svg>
