<?xml version="1.0" encoding="utf-8"?>
<!-- Generator: Adobe Illustrator 23.0.1, SVG Export Plug-In . SVG Version: 6.00 Build 0)  -->
<svg version="1.1" id="Layer_1" xmlns="http://www.w3.org/2000/svg" xmlns:xlink="http://www.w3.org/1999/xlink" x="0px" y="0px"
	 viewBox="0 0 566.7 264.7" style="enable-background:new 0 0 566.7 264.7;" xml:space="preserve">
<style type="text/css">
	.st0{fill:#DF600F;}
	.st1{fill:#F1C11D;}
	.st2{clip-path:url(#SVGID_2_);}
	.st3{clip-path:url(#SVGID_4_);fill:#333535;}
</style>
<polygon class="st0" points="116.6,67 116.6,257.7 69.9,257.7 48.9,173.2 48.9,257.7 3.7,257.7 3.7,67 48.4,67 71.3,150.8 71.3,67 
	"/>
<path class="st1" d="M195.9,117.1c0-8.3-0.4-13.4-1.1-15.2c-0.7-1.8-2-2.7-3.9-2.7c-1.6,0-2.9,0.7-3.9,2.1
	c-0.9,1.4-1.4,6.6-1.4,15.8v86.8c0,10.6,0.3,16.8,1,18.7c0.6,1.8,2,2.8,4,2.8c2.1,0,3.5-1.1,4.2-3.4c0.7-2.3,1.1-8.7,1.1-19.4V117.1
	z M249.1,178.2c0,18.7-0.5,32-1.4,40.1c-0.9,8.1-3.8,15.5-8.7,22.3c-4.9,6.8-11.4,12-19.7,15.6c-8.2,3.6-17.8,5.4-28.6,5.4
	c-10.3,0-19.6-1.7-27.8-5.1c-8.2-3.4-14.9-8.5-20-15.3c-5.1-6.8-8.1-14.2-9-22.1c-0.9-7.9-1.4-21.5-1.4-40.8v-31.8
	c0-18.9,0.4-32.3,1.4-40.2c0.9-8,3.8-15.3,8.7-22.1c4.9-6.8,11.4-12,19.7-15.6c8.2-3.6,17.8-5.4,28.5-5.4c10.3,0,19.6,1.7,27.8,5.1
	c8.3,3.4,15,8.5,20.1,15.4c5.1,6.8,8.1,14.3,9,22.2c1,8,1.4,21.5,1.4,40.6V178.2z"/>
<path class="st0" d="M384.8,67l-25,190.7h-77.5L254.2,67h55.5c6,52.5,9.4,95.8,10.4,130c1-34.6,2.9-65.8,5.7-93.8l3.4-36.2H384.8z"
	/>
<path class="st1" d="M452.9,117.1c0-8.3-0.3-13.4-1.1-15.2c-0.7-1.8-2-2.7-3.9-2.7c-1.6,0-2.9,0.7-3.8,2.1
	c-0.9,1.4-1.4,6.6-1.4,15.8v86.8c0,10.6,0.3,16.8,1,18.7c0.6,1.8,2,2.8,4,2.8c2.1,0,3.5-1.1,4.2-3.4c0.7-2.3,1.1-8.7,1.1-19.4V117.1
	z M506.1,178.2c0,18.7-0.5,32-1.4,40.1c-0.9,8.1-3.8,15.5-8.7,22.3c-4.9,6.8-11.4,12-19.7,15.6c-8.2,3.6-17.8,5.4-28.6,5.4
	c-10.3,0-19.6-1.7-27.8-5.1c-8.2-3.4-14.9-8.5-20-15.3c-5.1-6.8-8.1-14.2-9-22.1c-1-7.9-1.4-21.5-1.4-40.8v-31.8
	c0-18.9,0.5-32.3,1.4-40.2c0.9-8,3.8-15.3,8.7-22.1c4.9-6.8,11.4-12,19.7-15.6c8.2-3.6,17.8-5.4,28.5-5.4c10.3,0,19.5,1.7,27.8,5.1
	c8.3,3.4,15,8.5,20,15.4c5.1,6.8,8.1,14.3,9,22.2c1,8,1.4,21.5,1.4,40.6V178.2z"/>
<g>
	<defs>
		<rect id="SVGID_1_" x="477.4" y="-5.3" width="93.6" height="93.6"/>
	</defs>
	<clipPath id="SVGID_2_">
		<use xlink:href="#SVGID_1_"  style="overflow:visible;"/>
	</clipPath>
	<g class="st2">
		<defs>
			<rect id="SVGID_3_" x="477.4" y="-5.3" width="93.6" height="93.6"/>
		</defs>
		<clipPath id="SVGID_4_">
			<use xlink:href="#SVGID_3_"  style="overflow:visible;"/>
		</clipPath>
		<polygon class="st3" points="562.8,35.9 530.1,35.9 530.1,3.1 518.5,3.1 518.5,35.9 485.8,35.9 485.8,47.4 518.5,47.4 518.5,80.2 
			530.1,80.2 530.1,47.4 562.8,47.4 		"/>
	</g>
</g>
</svg>
