<?xml version="1.0" encoding="utf-8"?>
<!-- Generator: Adobe Illustrator 23.0.1, SVG Export Plug-In . SVG Version: 6.00 Build 0)  -->
<svg version="1.1" id="Layer_1" xmlns="http://www.w3.org/2000/svg" xmlns:xlink="http://www.w3.org/1999/xlink" x="0px" y="0px"
	 viewBox="0 0 860 860" style="enable-background:new 0 0 860 860;" xml:space="preserve">
<style type="text/css">
	.st0{fill:#192538;}
	.st1{fill:#38AECC;}
	.st2{fill:#FFFFFF;}
	.st3{fill:#B09E80;}
</style>
<g>
	<path class="st0" d="M815.6,441.3c0-41.8-11.2-81-30.7-114.9c-0.1-0.2-0.1-0.3-0.2-0.5c-0.1-0.2-0.3-0.4-0.4-0.5
		c-20.2-34.6-49-63.4-83.6-83.6c-0.2-0.1-0.3-0.3-0.5-0.4c-0.2-0.1-0.3-0.1-0.5-0.2c-33.9-19.5-73.1-30.7-114.9-30.7h-0.1
		c-41.8,0-81.1,11.2-114.9,30.7c-0.1,0.1-0.3,0.1-0.5,0.2c-0.2,0.1-0.3,0.3-0.5,0.4c-13.5,7.9-26.2,17.1-37.9,27.6
		c-41.2-36.4-93.8-56.7-149-57.3h-0.1c-0.2,0-0.4,0-0.5,0c-0.6,0-1.2,0-1.8,0c-0.1,0-0.2,0-0.2,0c-0.1,0-0.2,0-0.2,0
		c-0.6,0-1.2,0-1.8,0c-0.2,0-0.3,0-0.5,0c-60.3,0.6-117,24.5-159.6,67.1C73.9,322.5,50,380.1,50,441.4c0,61.3,23.9,118.8,67.2,162.1
		c43.3,43.3,100.9,67.2,162.2,67.2c56.1,0,109.7-20.3,151.6-57.3c11.6,10.4,24.3,19.7,37.9,27.6c0.2,0.1,0.3,0.2,0.5,0.4
		c0.2,0.1,0.4,0.2,0.7,0.3c33.8,19.5,73,30.6,114.7,30.6h0.1c41.7,0,80.9-11.1,114.7-30.6c0.2-0.1,0.5-0.2,0.7-0.4
		c0.2-0.1,0.3-0.3,0.5-0.4c34.5-20.1,63.2-48.8,83.4-83.3c0.2-0.3,0.4-0.6,0.6-0.9c0.1-0.2,0.1-0.3,0.2-0.5
		c19.5-33.9,30.7-73.1,30.7-114.9C815.6,441.4,815.7,441.4,815.6,441.3C815.7,441.3,815.6,441.3,815.6,441.3L815.6,441.3z
		 M128.5,290.6c25-25,55.2-43,88.1-53.1c-13.1,11.4-25.1,26.4-35.6,44.7c-23.4,40.9-36.7,94.4-37.8,151.2h-77
		C68.1,379.4,90.1,329,128.5,290.6L128.5,290.6z M128.5,592.2c-38.4-38.4-60.3-88.8-62.3-142.8h77c1.2,57.5,14.7,111.4,38.5,152.5
		c10.3,17.8,22.1,32.4,34.9,43.5C183.7,635.3,153.5,617.3,128.5,592.2L128.5,592.2z M271.3,654.2c-28.3-3.4-55-24.5-75.8-60.4
		c-22.4-38.7-35.2-89.8-36.4-144.5h112.2V654.2z M271.3,433.4H159.2c2.3-108.6,51.2-197.6,112.2-204.8V433.4z M419.3,280.5
		c-9.9,10.2-18.8,21.2-26.7,33c-10.8-27.1-24.9-50.1-41.3-67.3c-3-3.1-6-6-9.3-8.8C370.3,246.1,396.7,260.7,419.3,280.5L419.3,280.5
		z M287.3,228.6c38.5,4.7,74.2,43.1,94.7,102.4c-16.7,30.6-26.7,65.4-28,102.4h-66.7V228.6z M287.3,654.2V449.4H354
		c1.3,37,11.3,71.8,28,102.4C361.5,611.3,325.9,649.5,287.3,654.2L287.3,654.2z M341.6,645.4c20.4-17.5,38-43.6,51-76.2
		c7.9,11.8,16.8,22.9,26.7,33C396.5,622.2,370.1,636.8,341.6,645.4L341.6,645.4z M769.4,449.4h30c-1.2,33.3-10,64.6-24.8,92.4
		l-26-15c-3.8-2.2-8.7-0.9-10.9,2.9c-2.2,3.8-0.9,8.7,2.9,10.9l26,15c-17.2,27.3-40.3,50.4-67.6,67.6l-15-26
		c-2.2-3.8-7.1-5.1-10.9-2.9c-3.8,2.2-5.1,7.1-2.9,10.9l15,26c-27.8,14.8-59.1,23.6-92.4,24.8v-30.1c0-4.4-3.6-8-8-8
		c-4.4,0-8,3.6-8,8v30.1c-33.3-1.2-64.6-10.1-92.4-24.8l15-26c2.2-3.8,0.9-8.7-2.9-10.9c-3.8-2.2-8.7-0.9-10.9,2.9l-15,26
		c-27.3-17.2-50.4-40.3-67.6-67.6l26-15c3.8-2.2,5.1-7.1,2.9-10.9c-1.1-1.8-2.8-3.2-4.9-3.7c-2-0.5-4.2-0.3-6.1,0.8l-26,15
		c-14.8-27.8-23.6-59.1-24.8-92.4h30.1c4.4,0,8-3.6,8-8c0-4.4-3.6-8-8-8H370c1.2-33.3,10.1-64.6,24.8-92.4l26,15
		c1.3,0.7,2.6,1.1,4,1.1c2.8,0,5.5-1.4,6.9-4c2.2-3.8,0.9-8.7-2.9-10.9l-26-15c17.2-27.3,40.3-50.4,67.6-67.6l15,26
		c1.5,2.6,4.2,4,6.9,4c1.4,0,2.7-0.4,4-1.1c1.8-1.1,3.2-2.8,3.7-4.9c0.6-2.1,0.3-4.2-0.8-6.1l-15-26c27.8-14.8,59.1-23.6,92.4-24.8
		v30.1c0,4.4,3.6,8,8,8c4.4,0,8-3.6,8-8v-30.1c33.3,1.2,64.7,10,92.4,24.8l-15,26c-1.4,2.5-1.4,5.5,0,8c1.4,2.5,4.1,4,6.9,4
		c2.9,0,5.5-1.5,6.9-4l15-26c27.3,17.2,50.4,40.3,67.6,67.6l-26,15c-3.1,1.8-4.7,5.5-3.7,9c0.9,3.5,4.1,5.9,7.7,5.9
		c1.4,0,2.7-0.3,4-1.1l26-15c14.7,27.8,23.6,59.1,24.8,92.4h-30c-4.4,0-8,3.6-8,8C761.4,445.8,765,449.4,769.4,449.4L769.4,449.4z
		 M769.4,449.4"/>
	<path class="st1" d="M419.3,280.5c-3,3.1-6,6.3-8.8,9.6c-6.5,7.4-12.4,15.2-17.9,23.5c-10.8-27.1-24.9-50.1-41.3-67.3
		c-3-3.1-6-6-9.3-8.8c0.1,0,0.2,0,0.3,0.1C370.5,246.2,396.7,260.8,419.3,280.5L419.3,280.5z M419.3,602.3
		c-22.7,19.8-48.9,34.3-77.2,43c-0.2,0-0.4,0.1-0.5,0.2c20.4-17.5,38-43.6,51-76.2c5.5,8.2,11.4,16,17.9,23.4
		C413.4,595.9,416.3,599.1,419.3,602.3L419.3,602.3z M216.6,645.3c-32.9-10.1-63.1-28.1-88.1-53.2c-38.4-38.4-60.3-88.8-62.3-142.8
		h77c1.2,57.5,14.7,111.4,38.5,152.5C192,619.7,203.8,634.2,216.6,645.3L216.6,645.3z M216.6,237.4c-13.1,11.4-25.1,26.4-35.6,44.7
		c-23.4,40.9-36.7,94.4-37.8,151.2h-77c2-54,23.9-104.4,62.3-142.8C153.5,265.5,183.6,247.5,216.6,237.4L216.6,237.4z M216.6,237.4"
		/>
	<path class="st2" d="M216.6,645.3c-32.9-10.1-63.1-28.1-88.1-53.2c-38.4-38.4-60.3-88.8-62.3-142.8h19.2
		c2,54,23.9,104.4,62.3,142.8c16.6,16.6,35.5,30.2,56,40.3C207.8,637.2,212.1,641.5,216.6,645.3L216.6,645.3z M216.6,237.4
		c-4.6,4-8.9,8.3-12.9,12.8c-20.5,10.2-39.4,23.7-56,40.3c-38.4,38.4-60.3,88.9-62.3,142.8H66.2c2-54,23.9-104.4,62.3-142.8
		C153.5,265.5,183.6,247.5,216.6,237.4L216.6,237.4z M216.6,237.4"/>
	<path class="st1" d="M271.3,228.6v204.8H159.2C161.5,324.8,210.4,235.8,271.3,228.6L271.3,228.6z M271.3,449.4v204.8
		c-28.3-3.4-55-24.5-75.8-60.4c-22.4-38.7-35.2-89.8-36.4-144.5H271.3z M271.3,449.4"/>
	<path class="st2" d="M271.3,228.6v5.4c-51.3,22-90.1,103-92.2,199.4h-20C161.5,324.8,210.4,235.8,271.3,228.6L271.3,228.6z
		 M271.3,648.8v5.4c-28.3-3.4-55-24.5-75.8-60.4c-22.4-38.7-35.2-89.8-36.4-144.5h20c1.2,54.7,13.9,105.8,36.4,144.5
		C231.4,621.2,250.6,639.9,271.3,648.8L271.3,648.8z M271.3,648.8"/>
	<path class="st1" d="M382,551.8c-19.9,57.6-53.9,95.4-91.1,101.9c-0.5,0.1-1,0.2-1.5,0.2c-0.7,0.1-1.4,0.2-2.2,0.3V449.4H354
		c0.9,26.1,6.2,51.9,15.7,76.2C373.3,534.5,377.4,543.3,382,551.8L382,551.8z M382,331c-4.6,8.5-8.7,17.2-12.3,26.3
		c-9.5,24.3-14.8,50-15.7,76.1h-66.7V228.6c37.3,4.5,72,40.7,92.7,96.9C380.7,327.3,381.4,329.1,382,331L382,331z M382,331"/>
	<path class="st3" d="M761.4,441.4c0-4.4,3.6-8,8-8h30c-1.2-33.3-10-64.6-24.8-92.4l-26,15c-1.3,0.7-2.6,1.1-4,1.1
		c-3.6,0-6.8-2.4-7.7-5.9c-0.9-3.5,0.6-7.2,3.7-9l26-15c-17.2-27.3-40.3-50.4-67.6-67.6l-15,26c-2.2,3.8-7.1,5.1-10.9,2.9
		c-3.8-2.2-5.1-7.1-3-10.9l15-26c-27.8-14.8-59.1-23.6-92.4-24.8v30.1c0,4.4-3.6,8-8,8c-4.4,0-8-3.6-8-8v-30.1
		c-23.3,0.9-45.6,5.4-66.5,13.2c-8.9,3.3-17.6,7.2-25.9,11.6l15,26c2.2,3.8,0.9,8.7-2.9,10.9c-1.3,0.7-2.6,1.1-4,1.1
		c-2.8,0-5.5-1.4-6.9-4l-15-26c-6.3,4-12.4,8.2-18.2,12.8c-10.5,8.3-20.3,17.5-29.1,27.6c-7.5,8.5-14.3,17.6-20.4,27.3l26,15
		c3.8,2.2,5.1,7.1,2.9,10.9c-1.4,2.5-4.1,4-6.9,4c-1.4,0-2.7-0.3-4-1.1l-26-15c-10.3,19.3-17.5,40.1-21.4,61.6
		c-1.8,10-3,20.3-3.4,30.8h30.1c4.4,0,8,3.6,8,8c0,4.4-3.6,8-8,8H370c1.2,33.3,10.1,64.6,24.8,92.4l26-15c1.8-1.1,4-1.4,6.1-0.8
		c2.1,0.6,3.8,1.9,4.9,3.7c2.2,3.8,0.9,8.7-2.9,10.9l-26,15c17.2,27.3,40.3,50.4,67.6,67.6l15-26c2.2-3.8,7.1-5.1,10.9-2.9
		c1.8,1.1,3.2,2.8,3.7,4.9c0.6,2,0.3,4.2-0.8,6.1l-15,26c27.8,14.8,59.1,23.6,92.4,24.8v-30.1c0-4.4,3.6-8,8-8c4.4,0,8,3.6,8,8v30.1
		c10.4-0.4,20.7-1.5,30.8-3.4c18.5-3.4,36.5-9.2,53.4-17.3c2.8-1.3,5.5-2.7,8.2-4.1l-15-26c-0.9-1.6-1.2-3.4-1-5.1
		c0.5-3.4,3.1-6.1,6.4-6.7c3.3-0.6,6.7,0.9,8.4,3.9l15,26c9.6-6.1,18.7-12.9,27.3-20.4c10.1-8.8,19.3-18.6,27.6-29.1
		c4.6-5.8,8.8-11.9,12.8-18.2l-26-15c-3.8-2.2-5.1-7.1-2.9-10.9c2.2-3.8,7.1-5.2,10.9-2.9l26,15c4.4-8.3,8.3-17,11.6-25.9
		c7.7-20.8,12.3-43.2,13.2-66.5h-30C765,449.4,761.4,445.8,761.4,441.4L761.4,441.4z M592.8,433.4h93.9c4.4,0,8,3.6,8,8
		c0,4.4-3.6,8-8,8H584.8c-4.4,0-8-3.6-8-8V318.9c0-3.4,2.1-6.3,5.1-7.5c2.5-1,5.2-0.6,7.4,0.8c2.2,1.5,3.5,4,3.5,6.6V433.4z
		 M592.8,433.4"/>
	<path d="M600.8,235.1c25.6,2,50.2,8.5,73.3,19.7l-10.8,18.7c-4.4,7.6-1.8,17.4,5.9,21.9c2.4,1.4,5.2,2.1,8,2.1c5.7,0,11-3.1,13.9-8
		l10.8-18.6c21,14.5,39.1,32.6,53.6,53.6l-18.6,10.7c-3.7,2.1-6.4,5.6-7.5,9.7c-1.1,4.1-0.5,8.5,1.6,12.1c2.9,4.9,8.2,8,13.9,8
		c2.8,0,5.6-0.7,8-2.1l18.7-10.8c11.1,23.1,17.7,47.7,19.6,73.3h-21.6c-8.8,0-16,7.2-16,16c0,8.8,7.2,16,16,16H791
		c-2,25.6-8.5,50.2-19.6,73.3l-18.7-10.8c-2.4-1.4-5.2-2.2-8-2.2c-5.7,0-11,3.1-13.9,8c-4.4,7.6-1.8,17.4,5.9,21.9l18.6,10.8
		c-14.5,21-32.6,39.1-53.6,53.6L691,593.3c-2.9-4.9-8.2-8-13.9-8c-2.8,0-5.6,0.7-8,2.1c-7.6,4.4-10.3,14.2-5.9,21.9L674,628
		c-23.1,11.1-47.6,17.7-73.3,19.7v-21.6c0-8.8-7.2-16-16-16c-8.8,0-16,7.2-16,16v21.6c-25.6-2-50.2-8.5-73.3-19.7l10.8-18.7
		c2.1-3.7,2.7-8,1.6-12.2c-1.1-4.1-3.8-7.6-7.5-9.7c-2.4-1.4-5.2-2.1-8-2.1c-5.7,0-11,3.1-13.9,8l-10.7,18.6
		c-21-14.5-39.1-32.6-53.6-53.6l18.6-10.8c7.6-4.4,10.3-14.2,5.9-21.8c-2.9-5-8.1-8-13.9-8c-2.8,0-5.6,0.7-8,2.1l-18.7,10.8
		c-11.1-23.1-17.7-47.6-19.7-73.3h21.6c8.8,0,16-7.2,16-16c0-8.8-7.2-16-16-16h-21.6c2-25.6,8.6-50.2,19.7-73.3l18.7,10.8
		c2.4,1.4,5.2,2.2,8,2.2c5.7,0,11-3.1,13.9-8c4.4-7.6,1.8-17.4-5.9-21.9l-18.6-10.7c14.5-21,32.6-39.1,53.6-53.6l10.8,18.7
		c2.9,4.9,8.2,8,13.9,8c2.8,0,5.6-0.7,8-2.1c3.7-2.1,6.4-5.6,7.5-9.7c1.1-4.1,0.5-8.5-1.6-12.1l-10.8-18.7
		c23.1-11.1,47.6-17.7,73.3-19.7v21.6c0,8.8,7.2,16,16,16c8.8,0,16-7.2,16-16V235.1 M584.8,457.4h101.9c8.8,0,16-7.2,16-16
		c0-8.8-7.2-16-16-16h-85.9V318.9c0-8.8-7.2-16-16-16c-8.8,0-16,7.2-16,16v122.5C568.8,450.2,575.9,457.4,584.8,457.4 M592.8,226.7
		v30.1c0,4.4-3.6,8-8,8c-4.4,0-8-3.6-8-8v-30.1c-33.3,1.2-64.6,10-92.4,24.8l15,26c2.2,3.8,0.9,8.7-2.9,10.9c-1.3,0.7-2.6,1.1-4,1.1
		c-2.8,0-5.5-1.4-6.9-4l-15-26c-27.3,17.2-50.4,40.3-67.6,67.6l26,15c3.8,2.2,5.1,7.1,2.9,10.9c-1.4,2.5-4.1,4-6.9,4
		c-1.4,0-2.7-0.3-4-1.1l-26-15c-14.8,27.8-23.6,59.1-24.8,92.4h30.1c4.4,0,8,3.6,8,8c0,4.4-3.6,8-8,8H370
		c1.2,33.3,10.1,64.6,24.8,92.4l26-15c1.2-0.7,2.6-1.1,4-1.1c2.8,0,5.4,1.4,6.9,4c2.2,3.8,0.9,8.7-2.9,10.9l-26,15
		c17.2,27.3,40.3,50.4,67.6,67.6l15-26c2.2-3.8,7.1-5.1,10.9-2.9c1.8,1.1,3.2,2.8,3.7,4.9c0.6,2,0.3,4.2-0.8,6.1l-15,26
		c27.8,14.8,59.1,23.6,92.4,24.8v-30.1c0-4.4,3.6-8,8-8c4.4,0,8,3.6,8,8v30.1c33.3-1.2,64.7-10.1,92.4-24.8l-15-26
		c-1.4-2.5-1.4-5.5,0-8c1.4-2.5,4.1-4,6.9-4c2.9,0,5.5,1.5,6.9,4l15,26c27.3-17.2,50.4-40.3,67.6-67.6l-26-15
		c-3.1-1.8-4.7-5.5-3.7-9c0.9-3.5,4.1-5.9,7.7-5.9c1.4,0,2.7,0.3,4,1.1l26,15c14.7-27.8,23.6-59.1,24.8-92.4h-30c-4.4,0-8-3.6-8-8
		c0-4.4,3.6-8,8-8h30c-1.2-33.3-10-64.6-24.8-92.4l-26,15c-1.3,0.7-2.6,1.1-4,1.1c-3.6,0-6.8-2.4-7.7-5.9c-0.9-3.5,0.6-7.2,3.7-9
		l26-15c-17.2-27.3-40.3-50.4-67.6-67.6l-15,26c-2.2,3.8-7.1,5.1-10.9,2.9c-3.8-2.2-5.1-7.1-3-10.9l15-26
		C657.4,236.7,626,227.9,592.8,226.7L592.8,226.7z M584.8,449.4c-4.4,0-8-3.6-8-8V318.9c0-4.4,3.6-8,8-8c4.4,0,8,3.6,8,8v114.5h93.9
		c4.4,0,8,3.6,8,8c0,4.4-3.6,8-8,8H584.8z M584.8,449.4"/>
	<path class="st0" d="M694.7,441.4c0,4.4-3.6,8-8,8H584.8c-4.4,0-8-3.6-8-8V318.9c0-4.4,3.6-8,8-8c4.4,0,8,3.6,8,8v114.5h93.9
		C691.1,433.4,694.7,437,694.7,441.4L694.7,441.4z M694.7,441.4"/>
	<path d="M419.3,602.3c-22.7,19.8-48.9,34.3-77.2,43c4.4-3.9,8.7-8.1,12.9-12.8c20.3-10.1,39-23.4,55.5-39.9
		C413.4,595.9,416.3,599.1,419.3,602.3L419.3,602.3z M419.3,280.5c-3,3.1-6,6.3-8.8,9.6c-16.5-16.4-35.3-29.8-55.6-39.9
		c-4.1-4.6-8.3-8.8-12.7-12.6C370.5,246.2,396.7,260.8,419.3,280.5L419.3,280.5z M382,331c-4.6,8.5-8.7,17.2-12.3,26.3
		c-14.9-60.9-45.4-107.4-82.4-123.3v-5.4c38.7,4.6,72.6,42.2,92.7,96.9C380.7,327.3,381.4,329.1,382,331L382,331z M382,551.8
		c-19.9,57.6-53.9,95.4-91.1,101.9c-0.5,0.1-1,0.2-1.5,0.2c-0.7,0.1-1.4,0.2-2.2,0.3v-5.4c20.8-8.9,40-27.6,55.8-54.9
		c11.5-19.9,20.5-43.1,26.7-68.3C373.3,534.5,377.4,543.3,382,551.8L382,551.8z M382,551.8"/>
</g>
</svg>
